<?xml version="1.0" encoding="UTF-8" standalone="no"?>
<svg
   xmlns:dc="http://purl.org/dc/elements/1.1/"
   xmlns:cc="http://creativecommons.org/ns#"
   xmlns:rdf="http://www.w3.org/1999/02/22-rdf-syntax-ns#"
   xmlns:svg="http://www.w3.org/2000/svg"
   xmlns="http://www.w3.org/2000/svg"
   xmlns:xlink="http://www.w3.org/1999/xlink"
   xmlns:sodipodi="http://sodipodi.sourceforge.net/DTD/sodipodi-0.dtd"
   xmlns:inkscape="http://www.inkscape.org/namespaces/inkscape"
   width="64mm"
   height="89mm"
   viewBox="0 0 64 89"
   version="1.1"
   id="svg8"
   inkscape:version="1.0.2 (e86c870, 2021-01-15)"
   sodipodi:docname="joker.svg"
   inkscape:export-filename="/home/aeri/projects/open-stellar-kingdoms/joker2.png"
   inkscape:export-xdpi="300.04001"
   inkscape:export-ydpi="300.04001">
  <defs
     id="defs2">
    <rect
       x="-0.2399107"
       y="2.8465925"
       width="10.833458"
       height="44.344688"
       id="rect144" />
    <rect
       x="-0.2399107"
       y="2.8465925"
       width="10.833458"
       height="44.344688"
       id="rect199" />
  </defs>
  <sodipodi:namedview
     id="base"
     pagecolor="#ffffff"
     bordercolor="#666666"
     borderopacity="1.0"
     inkscape:pageopacity="0.0"
     inkscape:pageshadow="2"
     inkscape:zoom="2.0204392"
     inkscape:cx="100.63282"
     inkscape:cy="206.92054"
     inkscape:document-units="mm"
     inkscape:current-layer="layer1"
     inkscape:document-rotation="0"
     showgrid="false"
     inkscape:window-width="1272"
     inkscape:window-height="1404"
     inkscape:window-x="0"
     inkscape:window-y="0"
     inkscape:window-maximized="0" />
  <metadata
     id="metadata5">
    <rdf:RDF>
      <cc:Work
         rdf:about="">
        <dc:format>image/svg+xml</dc:format>
        <dc:type
           rdf:resource="http://purl.org/dc/dcmitype/StillImage" />
        <dc:title></dc:title>
      </cc:Work>
    </rdf:RDF>
  </metadata>
  <g
     inkscape:label="Layer 1"
     inkscape:groupmode="layer"
     id="layer1">
    <path
       style="fill:#1a1a1a;stroke-width:0.0763249;fill-opacity:1"
       d="m 18.600396,46.839138 c -0.06982,-0.946435 -0.07893,-2.749081 -0.01466,-2.896689 0.07689,-0.176552 0.0382,-0.223084 -0.469985,-0.56531 -0.659702,-0.444264 -1.087342,-0.752474 -2.368438,-1.706987 l -1.164164,-0.867391 -0.808922,-1.515559 c -0.663774,-1.243621 -0.792164,-1.535751 -0.715531,-1.628088 0.15391,-0.185449 0.609585,-0.110542 1.397077,0.229661 0.131169,0.05667 0.138236,0.005 0.120487,-0.88012 -0.01784,-0.889923 -0.01029,-0.944138 0.140899,-1.011599 0.314262,-0.140228 0.716854,0.0338 1.030297,0.445384 0.365245,0.479597 0.495134,0.913403 0.561349,1.874795 0.05202,0.755352 0.05603,0.767752 0.310684,0.961988 0.14189,0.108224 0.281197,0.173556 0.309571,0.14518 0.02838,-0.02838 0.04751,-0.459928 0.04252,-0.959007 -0.0097,-0.974291 0.0059,-1.01242 0.384919,-0.939961 0.405087,0.07744 0.857599,0.986767 0.920377,1.849514 0.04131,0.567658 0.04238,0.569979 0.453616,0.981217 l 0.412212,0.412212 0.346128,-0.153109 0.346128,-0.153109 -0.03253,-1.084264 c -0.03067,-1.022022 -0.02192,-1.10745 0.152377,-1.488171 0.244106,-0.533197 0.70007,-0.821189 1.245051,-0.786389 l 0.367442,0.02347 0.03816,2.758781 0.03816,2.75878 0.563332,0.621793 c 0.309832,0.341987 0.663003,0.673336 0.784826,0.736333 0.121821,0.063 0.204258,0.142426 0.183193,0.176512 -0.02107,0.03408 0.19797,0.310253 0.486747,0.613709 0.461555,0.485017 0.543731,0.541739 0.679549,0.469052 0.1967,-0.105272 0.39351,-0.106341 0.39351,-0.0022 0,0.0443 -0.19749,0.167252 -0.438867,0.273222 -0.678879,0.298045 -0.78233,0.354047 -0.78233,0.423499 0,0.113932 0.488966,0.367025 0.709649,0.36732 0.126168,1.52e-4 0.282311,0.07427 0.381625,0.181106 0.09245,0.09945 0.279711,0.205221 0.416142,0.23504 0.294194,0.0643 0.312836,0.148774 0.06821,0.309062 -0.123623,0.081 -0.234258,0.09772 -0.353884,0.05347 -0.121474,-0.04494 -0.256435,-0.02237 -0.446886,0.07473 -0.150069,0.07651 -0.366603,0.139108 -0.481185,0.139108 -0.114583,0 -0.228759,0.03305 -0.253724,0.07344 -0.06929,0.112107 -0.421567,-0.07629 -0.421567,-0.225453 0,-0.150197 0.251106,-0.291754 0.571785,-0.322335 0.145752,-0.0139 0.237482,-0.07007 0.253651,-0.155341 0.03474,-0.183196 -0.188533,-0.1723 -0.512154,0.025 -0.304641,0.185724 -0.389421,0.1152 -0.373646,-0.310819 0.01258,-0.339596 0.236515,-0.713201 0.459735,-0.766989 0.368213,-0.08872 0.242171,-0.291072 -0.831967,-1.335629 -0.580656,-0.564666 -1.107258,-1.026932 -1.170226,-1.027258 -0.06297,-3.05e-4 -0.278784,0.0583 -0.479592,0.130271 -0.443649,0.159016 -0.476855,0.257715 -0.335815,0.998166 0.05824,0.305709 0.07637,0.57407 0.04031,0.596355 -0.03606,0.02228 -0.07992,-0.0046 -0.09749,-0.05972 -0.04313,-0.135415 -0.149016,-0.828568 -0.153888,-1.007356 -0.0039,-0.14233 -0.102747,-0.224352 -0.371301,-0.30804 -0.184364,-0.05745 -0.101784,-0.17235 0.239641,-0.33343 l 0.28039,-0.132285 0.0086,-0.851633 c 0.0047,-0.468398 0.02896,-0.904825 0.05391,-0.969838 0.02494,-0.06501 0.01017,-0.139952 -0.03283,-0.166532 -0.04301,-0.02658 -0.06135,-0.0922 -0.04077,-0.145833 0.02058,-0.05363 0.01096,-0.214813 -0.02137,-0.358187 -0.03233,-0.143374 -0.03117,-0.335352 0.0026,-0.426618 0.03376,-0.09127 0.03665,-0.181225 0.0064,-0.199909 -0.03023,-0.01868 -0.05152,-0.210187 -0.04731,-0.425565 0.0045,-0.230637 -0.01809,-0.351003 -0.055,-0.292839 -0.03446,0.05431 -0.06318,0.158862 -0.06382,0.232325 -6.1e-4,0.07346 -0.05269,0.133568 -0.115655,0.133568 -0.07204,0 -0.114488,0.07266 -0.114488,0.195956 0,0.161221 0.02705,0.187367 0.15265,0.147505 0.08395,-0.02665 0.15265,-0.01942 0.15265,0.01606 0,0.03548 -0.06869,0.123322 -0.15265,0.195208 -0.08395,0.07188 -0.15265,0.203937 -0.15265,0.293445 0,0.142613 0.01652,0.150241 0.133569,0.06167 0.115305,-0.08725 0.120002,-0.08592 0.03435,0.0097 -0.05457,0.06094 -0.123264,0.113612 -0.15265,0.11704 -0.02939,0.0034 -0.207985,0.07483 -0.396889,0.158672 -1.235078,0.548157 -1.337191,0.56282 -1.793635,0.257564 -0.358488,-0.239747 -0.430766,-0.277726 -0.877736,-0.461212 -0.230883,-0.09478 -0.539999,-0.188516 -0.686924,-0.208303 -0.33945,-0.04571 -0.819284,-0.492607 -1.262364,-1.1757 -0.309207,-0.476705 -0.828766,-0.976572 -0.920105,-0.885234 -0.02267,0.02267 0.04883,0.207777 0.158891,0.41135 0.110059,0.203572 0.32806,0.610555 0.484447,0.904406 0.24433,0.459099 0.380671,0.607711 0.968979,1.056198 0.376552,0.287057 0.696088,0.55324 0.710081,0.591518 0.05983,0.163672 -0.179617,0.04887 -0.412009,-0.197544 -0.138569,-0.146925 -0.273474,-0.267137 -0.299788,-0.267137 -0.02631,0 -0.222735,-0.133363 -0.43649,-0.296362 -0.308905,-0.235472 -0.460715,-0.437168 -0.739641,-0.982588 -0.585962,-1.145807 -0.776902,-1.446985 -0.974405,-1.536973 -0.16601,-0.07564 -0.112593,0.06087 0.437057,1.116849 0.3444,0.661662 0.661887,1.247951 0.705526,1.302861 0.189753,0.238776 1.50453,1.159522 1.65573,1.159522 0.253884,0 1.911041,1.303433 1.862934,1.465285 -0.02613,0.08792 0.03338,0.166784 0.185087,0.245233 0.122986,0.0636 0.243867,0.168423 0.268626,0.232943 0.02476,0.06452 0.08412,0.117311 0.131902,0.117311 0.04779,0 0.06712,-0.05152 0.04296,-0.114488 -0.02416,-0.06297 -0.01066,-0.114487 0.02999,-0.114487 0.04066,0 0.07393,0.03655 0.07393,0.0812 0,0.04528 0.106392,0.0706 0.24049,0.05724 0.132271,-0.01318 0.252811,0.01137 0.267868,0.05456 0.0352,0.100949 -0.369495,0.341268 -0.574693,0.341268 -0.254663,0 -0.340227,0.267673 -0.291034,0.910457 0.05215,0.681488 -0.02329,2.524162 -0.103343,2.524162 -0.03052,0 -0.07641,-0.283356 -0.101958,-0.62968 z m 2.563655,-6.050133 c -0.01189,-1.174639 -0.0231,-2.28168 -0.02491,-2.460089 -0.0055,-0.545142 -0.192362,-0.362328 -0.214516,0.209893 -0.0068,0.175504 -0.01521,4.357314 -0.0088,4.413357 0.0015,0.01358 0.0629,0.01295 0.136355,-0.0014 0.124027,-0.0242 0.132024,-0.178633 0.111944,-2.161773 z m -2.468671,-0.09402 c -0.118078,-0.150563 -0.111937,-0.144828 -0.416082,-0.388534 -0.205193,-0.164416 -0.226274,-0.228225 -0.264765,-0.801411 -0.02872,-0.427746 -0.09576,-0.730328 -0.214052,-0.966233 -0.220853,-0.440422 -0.444942,-0.736637 -0.508893,-0.672686 -0.06745,0.06745 -0.0724,1.774282 -0.0055,1.882593 0.05375,0.08696 1.413049,1.079839 1.478366,1.079839 0.0196,0 -0.0115,-0.06011 -0.06912,-0.133568 z M 17.025969,40.07371 c 0,-0.03736 -0.205285,-0.200503 -0.45619,-0.362544 -0.250904,-0.162042 -0.488911,-0.380486 -0.528904,-0.485433 -0.03999,-0.104946 -0.08698,-0.534274 -0.104415,-0.954061 -0.02606,-0.62749 -0.06632,-0.831127 -0.226376,-1.144873 -0.23167,-0.454145 -0.558925,-0.825247 -0.689363,-0.781728 -0.145298,0.04847 -0.09817,1.854382 0.054,2.069115 0.845404,1.193006 0.875167,1.225329 1.356083,1.472744 0.51916,0.26709 0.595169,0.290944 0.595169,0.18678 z m 3.510945,-1.070316 c 0,-0.07736 0.04716,-0.256463 0.104784,-0.39802 0.133072,-0.326856 0.20577,-0.982464 0.108944,-0.982464 -0.04005,0 -0.173218,0.100397 -0.295925,0.223105 -0.209918,0.209917 -0.223103,0.259695 -0.223103,0.842258 0,0.595504 0.0059,0.616035 0.152649,0.53746 0.08396,-0.04493 0.152651,-0.144985 0.152651,-0.222339 z m -0.528249,7.733979 c 0.0037,-0.08891 0.02175,-0.107001 0.04611,-0.04611 0.02205,0.0551 0.01934,0.120928 -0.006,0.146291 -0.02536,0.02536 -0.0434,-0.01972 -0.04009,-0.100177 z m 1.262764,-0.301891 c -0.07365,-0.191934 -0.05193,-0.241457 0.03805,-0.08673 0.04455,0.07661 0.06492,0.155371 0.04527,0.175023 -0.01965,0.01965 -0.05714,-0.02008 -0.08332,-0.08829 z m -1.490297,-0.3519 c -0.09948,-0.285359 -0.100267,-0.294082 -0.02655,-0.293315 0.05842,6.1e-4 0.248056,0.361869 0.248056,0.47257 0,0.154981 -0.146251,0.03663 -0.221507,-0.179255 z m 1.137371,-0.10314 c -0.103256,-0.124417 -0.205173,-0.80137 -0.120648,-0.80137 0.07118,0 0.345914,0.617652 0.347981,0.78233 0.0021,0.163837 -0.100064,0.172389 -0.227333,0.01904 z m -1.248765,-0.534233 c 0.02416,-0.06297 0.05743,-0.114487 0.07393,-0.114487 0.0165,0 0.03,0.05152 0.03,0.114487 0,0.06297 -0.03327,0.114487 -0.07393,0.114487 -0.04066,0 -0.05416,-0.05152 -0.02999,-0.114487 z m 6.171754,-0.03816 c -0.02595,-0.04198 -0.01283,-0.07633 0.02915,-0.07633 0.04198,0 0.09755,0.03435 0.123497,0.07633 0.02594,0.04198 0.01283,0.07633 -0.02915,0.07633 -0.04198,0 -0.09755,-0.03435 -0.123496,-0.07633 z m 8.052274,-0.03816 c 0.102742,-0.123797 0.381624,-0.157652 0.381624,-0.04633 0,0.07783 -0.185278,0.160816 -0.35905,0.160816 -0.09587,0 -0.10004,-0.02115 -0.02257,-0.114487 z M 19.621015,45.118911 c 0,-0.08592 0.292062,-0.321457 0.398607,-0.321457 0.03263,0 0.05934,0.03435 0.05934,0.07633 0,0.04198 -0.04023,0.07633 -0.0894,0.07633 -0.04917,0 -0.152207,0.05685 -0.228975,0.126317 -0.07677,0.06948 -0.139578,0.0886 -0.139578,0.04249 z m 5.266416,-0.08187 c 0,-0.10593 0.271026,-0.315909 0.407751,-0.315909 0.07073,0 0.188234,-0.02882 0.261127,-0.06404 1.773728,-0.857016 2.97304,-1.386136 3.141837,-1.386136 0.330388,0 0.132565,0.171201 -0.585989,0.507131 -0.409292,0.191348 -1.018991,0.48181 -1.354887,0.645472 -0.335895,0.163663 -0.640956,0.297569 -0.677914,0.297569 -0.03696,0 -0.191264,0.07668 -0.342902,0.170395 -0.273027,0.16874 -0.849023,0.267458 -0.849023,0.145513 z m 5.781609,-0.137482 c 0.05248,-0.02118 0.138338,-0.02118 0.190812,0 0.05248,0.02117 0.0095,0.03849 -0.09541,0.03849 -0.104947,0 -0.147879,-0.01733 -0.09541,-0.03849 z m 0.515193,-0.254752 c 0.02594,-0.04198 0.08537,-0.07633 0.132063,-0.07633 0.04669,0 0.139116,-0.04794 0.205389,-0.106528 0.06628,-0.05859 0.292228,-0.163759 0.502122,-0.233707 0.209893,-0.06995 0.49444,-0.193288 0.632326,-0.274085 0.137886,-0.0808 0.34118,-0.16331 0.451766,-0.183362 0.110585,-0.02006 0.22102,-0.06817 0.24541,-0.106922 0.02439,-0.03875 0.164557,-0.125152 0.311482,-0.191994 0.146925,-0.06684 0.318656,-0.15399 0.381624,-0.193662 0.269966,-0.170088 2.874037,-1.305726 2.993067,-1.305278 0.07198,2.72e-4 0.167645,-0.0682 0.212578,-0.152157 0.04777,-0.08926 0.15981,-0.152649 0.269822,-0.152649 0.131299,0 0.188127,-0.04212 0.188127,-0.139431 0,-0.109749 0.04613,-0.132661 0.216667,-0.107632 0.132548,0.01945 0.263777,-0.01531 0.338009,-0.08954 0.06674,-0.06674 0.173701,-0.121343 0.237692,-0.121343 0.195697,0 0.505155,-0.171154 0.505155,-0.279388 0,-0.05623 -0.04784,-0.102236 -0.106322,-0.102236 -0.05848,0 -0.125674,-0.05044 -0.149328,-0.112075 -0.06482,-0.168907 -0.51666,-0.328886 -0.815464,-0.288721 -0.250464,0.03367 -0.256437,0.02935 -0.112014,-0.0809 0.150089,-0.114578 0.149472,-0.117156 -0.03816,-0.159323 -0.104896,-0.02357 -0.310932,-0.05213 -0.457858,-0.06346 -0.200673,-0.01548 -0.264499,-0.05384 -0.256536,-0.154172 0.01305,-0.164504 -0.166251,-0.172362 -0.523828,-0.02295 -0.214762,0.08973 -0.265949,0.153406 -0.271179,0.337322 -0.0037,0.1299 0.03964,0.244394 0.101476,0.268123 0.06434,0.02469 0.08826,0.09263 0.05925,0.168239 -0.02987,0.07784 7.5e-5,0.154117 0.07761,0.197493 0.153122,0.08569 0.167657,0.292059 0.02057,0.292059 -0.130269,0 -0.29873,-0.250826 -0.422911,-0.62968 -0.0516,-0.15742 -0.127678,-0.286219 -0.169065,-0.286219 -0.04139,0 -0.434846,0.171731 -0.874355,0.381624 -0.439508,0.209894 -0.81657,0.381624 -0.837914,0.381624 -0.04027,0 -0.771228,0.331954 -1.458763,0.662479 -0.217765,0.104687 -0.535467,0.209056 -0.706005,0.23193 -0.176443,0.02366 -0.31007,0.08303 -0.31007,0.13774 0,0.104281 -0.412709,0.290169 -0.839573,0.378149 -0.146926,0.03028 -0.438869,0.168322 -0.648762,0.306753 -0.209893,0.138432 -0.543473,0.310917 -0.741289,0.383302 -0.359832,0.13167 -0.648205,0.109233 -0.554054,-0.04311 0.06222,-0.100675 0.776855,-0.420615 1.096156,-0.490745 0.259692,-0.05704 0.256016,-0.04697 0.237458,-0.650601 -0.01485,-0.482874 -0.03056,-0.514714 -0.189076,-0.383156 -0.0961,0.07975 -0.116332,0.075 -0.116332,-0.02729 0,-0.06811 -0.0086,-0.123715 -0.01908,-0.123571 -0.08534,0.0012 -1.346523,0.552802 -2.137096,0.934749 l -0.973142,0.470151 v 0.427705 c 0,0.257906 -0.04449,0.486521 -0.11206,0.57586 -0.134361,0.177641 -0.126248,0.203953 -0.148563,-0.481758 -0.01382,-0.424736 0.01,-0.578253 0.102222,-0.659549 0.06613,-0.05828 0.532393,-0.302249 1.036137,-0.54216 1.095178,-0.521585 1.529821,-0.827345 2.02936,-1.427603 0.481209,-0.578231 0.493017,-0.787458 0.0651,-1.153733 -0.349973,-0.299562 -0.721884,-0.413678 -1.578525,-0.484352 -0.325747,-0.02687 -0.617501,-0.08657 -0.648343,-0.132658 -0.03084,-0.04608 -0.0566,-0.537675 -0.05724,-1.092416 -0.0011,-0.929857 -0.01309,-1.014999 -0.153819,-1.090315 -0.126802,-0.06786 -0.152649,-0.15981 -0.152649,-0.543023 v -0.461332 l -0.457947,-0.439836 -0.45795,-0.439835 v -0.687151 c 0,-0.579109 -0.02289,-0.70786 -0.145592,-0.818904 -0.08008,-0.07247 -0.217675,-0.299319 -0.305776,-0.504115 -0.144224,-0.33526 -0.160447,-0.521557 -0.162836,-1.869903 -0.0025,-1.419698 0.0069,-1.518098 0.17938,-1.892867 0.173571,-0.376944 0.430056,-0.692228 0.804449,-0.988869 0.09413,-0.07458 0.149395,-0.170794 0.122811,-0.213807 -0.02658,-0.04301 0.02804,-0.399609 0.121379,-0.792436 l 0.169712,-0.714234 -0.162623,-0.228383 c -0.324696,-0.456 -1.376848,-1.002001 -1.938165,-1.005789 -0.07382,-5.35e-4 -0.27647,0.102132 -0.450319,0.228068 -0.575435,0.416843 -1.295599,0.259204 -1.592001,-0.348477 -0.08325,-0.170675 -0.151358,-0.458071 -0.151358,-0.63866 0,-0.277695 0.04418,-0.372527 0.286422,-0.614766 0.506618,-0.506618 1.22815,-0.486253 1.697145,0.0479 l 0.235726,0.268477 1.294587,0.04379 1.294586,0.04379 V 22.17933 20.145675 l -0.236648,-0.210482 c -0.688205,-0.612112 -0.637203,-1.524972 0.109657,-1.962661 0.632983,-0.370953 1.412735,-0.19866 1.683525,0.371989 0.238989,0.503628 0.102673,1.224786 -0.269123,1.423765 -0.139205,0.0745 -0.154882,0.132227 -0.114978,0.423365 0.08636,0.630049 0.459214,1.106597 1.133857,1.449183 0.428369,0.217526 0.570565,0.228781 0.62213,0.04925 0.02109,-0.07346 0.04918,-1.348016 0.06239,-2.832342 l 0.02402,-2.698772 -0.238949,-0.201572 c -0.965299,-0.814297 -0.646682,-2.067413 0.58505,-2.301007 0.363647,-0.06896 0.447496,-0.05842 0.756417,0.09504 0.425441,0.211353 0.691117,0.588205 0.691117,0.980329 0,0.414189 -0.118524,0.674736 -0.471302,1.036046 l -0.309787,0.317277 0.03619,0.789433 c 0.05219,1.138601 0.381075,2.098067 0.975649,2.846277 0.456892,0.57495 1.20479,1.16705 1.749365,1.384945 0.31453,0.12585 0.328647,0.124704 0.640011,-0.05195 0.175112,-0.09936 0.936618,-0.511146 1.692234,-0.915091 1.342802,-0.717851 1.374314,-0.740312 1.394451,-0.993995 0.04904,-0.617753 0.294814,-0.986138 0.815813,-1.222795 0.924208,-0.419809 1.796349,0.111317 1.796673,1.094158 7.7e-5,0.297089 -0.04305,0.409057 -0.247282,0.641662 -0.419485,0.477768 -1.051495,0.674886 -1.552779,0.484298 -0.173859,-0.06611 -0.236086,-0.05176 -0.385812,0.08889 -0.29955,0.281412 -0.608361,1.282759 -0.428135,1.388266 0.03149,0.01844 1.314091,0.05665 2.850237,0.08492 l 2.792994,0.0514 0.183676,-0.196509 c 0.227255,-0.243132 0.724579,-0.473699 1.155502,-0.53571 0.415687,-0.05982 0.934125,0.189014 1.190491,0.571394 0.149194,0.222529 0.173964,0.340566 0.148335,0.706854 -0.0263,0.375845 -0.06885,0.479343 -0.292973,0.712517 -0.682208,0.709772 -1.523994,0.719438 -2.166624,0.02488 -0.203807,-0.220276 -0.3229,-0.291089 -0.446161,-0.265288 -0.09248,0.01935 -0.349594,0.07101 -0.571369,0.114775 -0.684556,0.135105 -1.681382,0.744508 -1.878911,1.14866 -0.137122,0.280555 -0.163122,1.606174 -0.03312,1.68858 0.05601,0.03551 0.517253,0.06508 1.024985,0.06573 0.842878,0.0011 0.935794,-0.01282 1.068549,-0.159732 0.07997,-0.0885 0.314774,-0.246788 0.521789,-0.351764 0.679426,-0.344532 1.361243,-0.17538 1.787078,0.443358 0.150622,0.218853 0.172599,0.324538 0.138529,0.666198 -0.10015,1.00432 -1.208742,1.523326 -2.108166,0.986974 l -0.339409,-0.202399 -1.033922,0.536852 c -0.568657,0.29527 -1.08129,0.582572 -1.139181,0.63845 -0.133131,0.128499 -0.210379,1.37314 -0.08985,1.447633 0.101494,0.06273 1.749045,0.156646 4.927247,0.280878 2.988659,0.116824 3.108383,0.112721 3.354058,-0.114963 0.358873,-0.332593 1.117468,-0.451353 1.590429,-0.248986 0.870464,0.372446 0.994684,1.445669 0.231396,1.999191 -0.582617,0.422503 -1.189756,0.437821 -1.748318,0.04411 l -0.332557,-0.234407 -1.585666,-0.052 c -1.561965,-0.05122 -1.598216,-0.04885 -2.42524,0.158537 -0.839851,0.210602 -1.924569,0.694041 -2.349186,1.046989 l -0.212089,0.176292 -0.04065,1.975843 -0.04065,1.975841 0.243515,-0.04871 c 0.133933,-0.02678 0.676992,-0.251742 1.206797,-0.499901 1.464546,-0.685984 3.934171,-1.827642 5.46645,-2.52703 0.755616,-0.344891 1.765265,-0.811892 2.243665,-1.037781 0.973674,-0.459745 1.176415,-0.502281 1.139019,-0.238975 -0.01893,0.133291 -0.19718,0.257152 -0.796341,0.553355 -0.829322,0.409986 -1.937581,1.094532 -1.937581,1.196799 0,0.03441 -0.03791,0.06256 -0.08423,0.06256 -0.04633,0 -0.289754,0.171731 -0.540948,0.381624 -0.251195,0.209894 -0.482549,0.381625 -0.514117,0.381625 -0.03157,0 -0.09652,0.08587 -0.14434,0.190812 -0.04781,0.104947 -0.139195,0.190812 -0.203064,0.190812 -0.06387,0 -0.116123,0.0332 -0.116123,0.07379 0,0.04058 -0.111625,0.193559 -0.248056,0.339957 -0.13643,0.146398 -0.32477,0.362206 -0.418531,0.479574 -0.09376,0.117369 -0.282665,0.350783 -0.419787,0.518697 -0.137121,0.167915 -0.333301,0.472097 -0.435956,0.675961 -0.102653,0.203863 -0.231451,0.387856 -0.286218,0.408871 -0.05476,0.02101 -0.09957,0.08238 -0.09957,0.136367 0,0.05399 -0.05152,0.117924 -0.114487,0.142088 -0.06297,0.02416 -0.114488,0.09044 -0.114488,0.147289 0,0.210437 -0.466358,1.068428 -0.540462,0.994325 -0.06668,-0.06668 0.453109,-1.208143 0.600748,-1.31924 0.02981,-0.02243 0.150481,-0.242764 0.268156,-0.489625 0.117674,-0.24686 0.323751,-0.585306 0.457949,-0.7521 0.674269,-0.838053 1.20893,-1.442804 1.688009,-1.9093 0.291,-0.283356 0.487675,-0.515193 0.437056,-0.515193 -0.131428,0 -0.961675,0.348836 -1.499445,0.630007 -0.251872,0.131689 -0.784238,0.378872 -1.183036,0.549294 -0.398797,0.170421 -0.783728,0.344564 -0.855401,0.386984 -0.111347,0.0659 -0.142682,0.304697 -0.215277,1.640573 -0.04673,0.859895 -0.112897,1.769523 -0.147041,2.021395 -0.07003,0.516573 -0.05503,0.572436 0.153676,0.572436 0.08148,0 0.148145,0.02043 0.148145,0.0454 0,0.189581 -0.348016,1.156997 -0.443572,1.233047 -0.239725,0.190787 -0.291807,0.110943 -0.273829,-0.419787 0.0096,-0.283356 0.04141,-1.314014 0.07071,-2.29035 0.02929,-0.976336 0.0548,-1.817817 0.0567,-1.869958 0.01423,-0.391927 -0.02797,-0.51459 -0.177044,-0.51459 -0.08605,0 -0.252376,0.04961 -0.369631,0.110245 -0.211773,0.109513 -0.213515,0.116636 -0.261914,1.071594 -0.04313,0.850847 -0.0718,1.00073 -0.249511,1.303965 -0.119649,0.204167 -0.210596,0.488229 -0.225063,0.702959 -0.01335,0.198189 -0.04444,0.703805 -0.06909,1.123592 -0.06227,1.060578 -0.120703,1.424261 -0.223094,1.38851 -0.04744,-0.01656 -0.07464,-0.112501 -0.06045,-0.2132 0.01419,-0.100697 0.02427,-0.526549 0.0224,-0.946335 -0.005,-1.10956 -0.0051,-1.095754 0.02228,-1.693583 0.01383,-0.301791 0.04424,-0.62808 0.06759,-0.725086 0.02335,-0.09701 -0.0019,-0.348108 -0.05601,-0.558001 -0.07563,-0.293087 -0.153816,-0.414068 -0.337024,-0.521464 l -0.238544,-0.139828 -0.936274,0.393308 c -1.372988,0.576762 -1.475539,0.640266 -1.44576,0.895283 0.03736,0.319937 0.601339,1.013695 0.824067,1.013695 0.199547,0 0.224775,0.08188 0.09813,0.318511 -0.06031,0.112693 -0.06031,0.178911 0,0.239223 0.104396,0.104396 0.108848,0.281839 0.007,0.281839 -0.04198,0 -0.07633,-0.03316 -0.07633,-0.07368 0,-0.142848 -0.619322,-1.074627 -0.873047,-1.313516 -0.226953,-0.21368 -0.271075,-0.172617 -0.28087,0.261398 -0.01276,0.565351 -0.0037,0.596323 0.264612,0.900935 0.132299,0.150218 0.360755,0.420635 0.50768,0.600927 0.146926,0.180291 0.326223,0.396761 0.39844,0.481044 0.07222,0.08428 0.15181,0.217854 0.176874,0.296825 0.02506,0.07897 0.07761,0.143584 0.116753,0.143584 0.03915,0 0.07118,0.03283 0.07118,0.07297 0,0.04013 0.104545,0.250275 0.232322,0.466986 0.127778,0.216711 0.220985,0.428034 0.207128,0.469606 -0.02445,0.07334 -0.5921,-0.724216 -0.5921,-0.831903 0,-0.02952 -0.154558,-0.250395 -0.343462,-0.49084 -0.188904,-0.240445 -0.343462,-0.472104 -0.343462,-0.5148 0,-0.04269 -0.06417,-0.09799 -0.142584,-0.122881 -0.07842,-0.02489 -0.203955,-0.11307 -0.278966,-0.195956 -0.269551,-0.29785 -0.316919,-0.195223 -0.372621,0.807314 -0.02928,0.526909 -0.07287,1.009207 -0.09688,1.071773 -0.09696,0.252673 -0.219459,0.02543 -0.284687,-0.5281 -0.03797,-0.322184 -0.09654,-0.58579 -0.130156,-0.58579 -0.03363,0 -0.422983,0.154558 -0.865251,0.343462 -0.442267,0.188904 -0.840794,0.343462 -0.885614,0.343462 -0.04482,0 -0.382968,0.154558 -0.751441,0.343462 -0.368472,0.188904 -0.694869,0.343462 -0.725327,0.343462 -0.03046,0 -0.319442,0.123612 -0.642189,0.274694 -0.872821,0.408578 -1.154102,0.533109 -1.617196,0.715983 -0.230883,0.09117 -0.522826,0.212037 -0.648762,0.268587 -0.125936,0.05655 -0.433206,0.176196 -0.682821,0.265883 -0.249615,0.08969 -0.558731,0.21745 -0.686924,0.283919 -0.438444,0.227338 -0.49829,0.251705 -0.61817,0.251705 -0.06602,0 -0.0988,-0.03435 -0.07286,-0.07633 z m 0.190042,-3.35008 c 0.104524,-0.02909 0.156043,-0.0724 0.114488,-0.09624 -0.110427,-0.06335 -0.647992,0.0166 -0.647992,0.09638 0,0.07768 0.25415,0.07762 0.533504,-1.54e-4 z m -1.067779,-0.50883 c 0,-0.06545 -0.03435,-0.09777 -0.07633,-0.07182 -0.04198,0.02594 -0.07633,0.07949 -0.07633,0.118992 0,0.0395 0.03435,0.07182 0.07633,0.07182 0.04198,0 0.07633,-0.05355 0.07633,-0.118992 z m 1.582152,-0.0034 c -0.02536,-0.02536 -0.09119,-0.02807 -0.14629,-0.006 -0.06088,0.02437 -0.0428,0.04245 0.04611,0.04611 0.08046,0.0033 0.125538,-0.01473 0.100176,-0.04009 z m 1.34476,-0.287541 c 0.384186,-0.183511 0.767212,-0.360557 0.85117,-0.393437 0.135248,-0.05297 0.137585,-0.06339 0.0205,-0.09146 -0.07268,-0.01742 -0.209122,0.02224 -0.3032,0.08814 -0.194356,0.136135 -0.366063,0.156533 -0.366063,0.04349 0,-0.04198 0.05152,-0.07633 0.114487,-0.07633 0.06297,0 0.114487,-0.03435 0.114487,-0.07633 0,-0.04198 0.05046,-0.07633 0.112137,-0.07633 0.09772,0 0.466851,-0.159372 0.898132,-0.387764 0.16928,-0.08964 0.287254,-0.08962 0.287254,7.5e-5 0,0.03865 -0.09445,0.09179 -0.209893,0.118098 -0.242658,0.0553 -0.524821,0.247244 -0.459496,0.312568 0.0245,0.0245 0.245248,-0.04806 0.490541,-0.161252 1.469789,-0.678253 2.39227,-1.138254 2.39227,-1.192922 0,-0.08498 -0.0249,-0.08037 -0.277494,0.05137 -0.12024,0.06271 -0.274518,0.114229 -0.342842,0.114488 -0.06832,2.29e-4 -0.166979,0.05199 -0.219239,0.114957 -0.05226,0.06297 -0.136508,0.114487 -0.187221,0.114487 -0.05072,0 -0.252586,0.0812 -0.448604,0.180431 -0.337659,0.170945 -0.526865,0.145146 -0.203748,-0.02778 0.226055,-0.120982 0.191555,-0.255288 -0.05001,-0.194661 -0.126897,0.03185 -0.2241,0.01616 -0.260022,-0.04196 -0.04397,-0.07113 -0.117945,-0.06408 -0.316588,0.03018 -0.142571,0.06766 -0.480648,0.223591 -0.751283,0.346526 -1.278461,0.580734 -1.689222,0.787129 -1.648187,0.828164 0.02448,0.02448 0.14976,9.01e-4 0.278388,-0.05235 0.128628,-0.05328 0.255214,-0.07552 0.281303,-0.04944 0.02609,0.02609 -0.0722,0.09742 -0.218417,0.158515 -0.319129,0.13334 -0.531573,0.348873 -0.343873,0.348873 0.06563,0 0.140555,-0.03435 0.1665,-0.07633 0.0616,-0.09966 0.190812,-0.09838 0.190812,0.0019 0,0.04302 -0.08253,0.109593 -0.183398,0.147942 -0.20327,0.07728 -0.333417,0.231794 -0.195246,0.231794 0.04857,0 0.402649,-0.150145 0.786835,-0.333654 z m -0.293703,-0.124292 c 0.02595,-0.04198 0.07949,-0.07633 0.118992,-0.07633 0.0395,0 0.07182,0.03435 0.07182,0.07633 0,0.04198 -0.05355,0.07633 -0.118992,0.07633 -0.06545,0 -0.09776,-0.03435 -0.07182,-0.07633 z m 0.190812,-0.457949 c 0,-0.04198 0.05355,-0.07633 0.118992,-0.07633 0.06545,0 0.09776,0.03435 0.07182,0.07633 -0.02594,0.04198 -0.07949,0.07633 -0.118992,0.07633 -0.0395,0 -0.07182,-0.03435 -0.07182,-0.07633 z m 0.339046,-0.145505 c 0.0447,-0.07233 0.729503,-0.326915 0.729503,-0.2712 0,0.04786 -0.591598,0.340381 -0.688388,0.340381 -0.04613,0 -0.06463,-0.03113 -0.04112,-0.06918 z m 1.382757,-0.653478 c 0.166689,-0.126078 0.338968,-0.151233 0.338968,-0.04949 0,0.03709 -0.07728,0.08814 -0.171731,0.113445 -0.276843,0.07419 -0.325354,0.05564 -0.167237,-0.06395 z m -3.401546,1.382335 c 3.06e-4,-0.03598 -0.05373,-0.04456 -0.120134,-0.01909 -0.0664,0.02549 -0.212373,0.04742 -0.324381,0.04875 -0.187748,0.0023 -0.192994,0.01051 -0.06719,0.105939 0.106291,0.08063 0.177886,0.08431 0.323785,0.01666 0.103026,-0.04777 0.187588,-0.116292 0.187916,-0.152268 z m 0.375992,-0.312366 c 0.08704,-0.05379 0.08217,-0.0825 -0.02761,-0.162777 -0.111154,-0.08128 -0.179625,-0.07164 -0.412268,0.05802 -0.153437,0.08551 -0.288055,0.163728 -0.299149,0.173811 -0.05779,0.05251 0.64922,-0.01354 0.739031,-0.06905 z m -0.757021,-0.270986 c 0,-0.04198 -0.06869,-0.07633 -0.152649,-0.07633 -0.08395,0 -0.15265,0.03435 -0.15265,0.07633 0,0.04198 0.06869,0.07633 0.15265,0.07633 0.08395,0 0.152649,-0.03435 0.152649,-0.07633 z m 1.71731,-0.610599 c 0.02594,-0.04198 0.01283,-0.07633 -0.02915,-0.07633 -0.04198,0 -0.09755,0.03435 -0.123496,0.07633 -0.02594,0.04198 -0.01283,0.07633 0.02915,0.07633 0.04198,0 0.09755,-0.03435 0.123496,-0.07633 z m 0.467709,-0.201723 c 0.162547,-0.06897 0.256183,-0.139331 0.208081,-0.15636 -0.0481,-0.01703 -0.20266,0.03927 -0.343461,0.125113 -0.309638,0.188774 -0.261866,0.199801 0.13538,0.03124 z m -2.68113,-0.33194 c 1.618479,-0.172158 2.842642,-0.707295 4.040538,-1.766304 0.478347,-0.422886 1.230991,-1.430231 1.471222,-1.969096 0.239594,-0.537437 0.566417,-1.760402 0.514315,-1.924561 -0.02997,-0.09443 -0.153699,-0.135338 -0.476397,-0.157523 -0.542076,-0.03727 -0.617952,-0.01239 -0.721086,0.236486 l -0.08266,0.199484 -0.04539,-0.228975 c -0.03736,-0.18848 -0.08743,-0.233072 -0.283137,-0.252147 -0.264441,-0.02577 -0.331031,0.09395 -0.332978,0.598655 -0.0026,0.67909 -0.551143,2.052062 -1.093799,2.737816 -0.151131,0.190983 -0.247115,0.387406 -0.226965,0.464461 0.03205,0.122556 -0.319352,0.458271 -0.479684,0.458271 -0.03219,0 -0.112757,0.04903 -0.17903,0.108965 -0.397847,0.359767 -1.91081,0.882536 -2.558188,0.883922 -0.170502,3.81e-4 -0.485399,0.02173 -0.699769,0.0475 -0.322581,0.03876 -0.411903,0.08431 -0.518202,0.264263 -0.142353,0.240984 -0.128619,0.250845 0.450017,0.323053 0.414755,0.05176 0.527544,0.04952 1.221198,-0.02427 z m 3.243807,-2.47216 c 0,-0.06297 0.03435,-0.135714 0.07633,-0.161659 0.04198,-0.02594 0.07633,0.0043 0.07633,0.06731 0,0.06297 -0.03435,0.135714 -0.07633,0.161658 -0.04198,0.02595 -0.07633,-0.0043 -0.07633,-0.06731 z m 0.460376,-0.509614 c -0.0014,-0.06544 0.048,-0.18565 0.109633,-0.267136 0.08959,-0.118446 0.112547,-0.124298 0.114488,-0.02918 0.0014,0.06544 -0.048,0.185651 -0.109633,0.267137 -0.08959,0.118445 -0.112547,0.124297 -0.114488,0.02917 z m 0.684497,-1.483127 c 0,-0.09239 0.241094,-0.510149 0.2749,-0.476342 0.05039,0.05039 -0.09868,0.413887 -0.193868,0.472718 -0.04457,0.02754 -0.08103,0.02917 -0.08103,0.0036 z m 1.179998,4.421099 c 0.160674,-0.105277 0.173053,-0.146335 0.103919,-0.344654 -0.08539,-0.244943 -0.327635,-0.451728 -0.529195,-0.451728 -0.06996,0 -0.201963,0.06053 -0.293324,0.13451 -0.138033,0.111772 -0.153446,0.167829 -0.09117,0.331618 0.164978,0.433923 0.464883,0.556235 0.809774,0.330254 z m 2.320395,-0.08013 c 0.126499,-0.08861 0.152767,-0.146617 0.09331,-0.206077 -0.116494,-0.116494 -0.102806,-0.204876 0.03173,-0.204876 0.06297,0 0.114487,0.03067 0.114487,0.06816 0,0.121315 0.225802,0.15899 0.420691,0.07019 0.10445,-0.04759 0.189909,-0.121347 0.189909,-0.163904 0,-0.04256 -0.245263,-0.330317 -0.545028,-0.639466 l -0.545027,-0.562088 0.05593,-3.05004 c 0.05946,-3.242291 0.06229,-3.213076 -0.286751,-2.954634 -0.109964,0.08142 -0.135644,0.307995 -0.175178,1.545579 -0.02548,0.797595 -0.07709,1.482802 -0.114709,1.522681 -0.08371,0.08876 -0.0899,-0.04363 -0.07214,-1.541762 0.0115,-0.969828 -0.0046,-1.163954 -0.09636,-1.163954 -0.202421,0 -0.319576,0.244984 -0.325001,0.679612 -0.01813,1.452381 -0.133398,5.32106 -0.159906,5.366891 -0.0656,0.113427 0.202556,0.49349 0.647807,0.918141 0.253088,0.241377 0.489412,0.438867 0.525167,0.438867 0.03575,0 0.144238,-0.05549 0.241073,-0.123319 z m -0.77903,-1.084806 c -0.141848,-0.15674 -0.172612,-0.62367 -0.04109,-0.62367 0.04715,0 0.0677,0.06702 0.04601,0.149971 -0.02443,0.09343 0.02976,0.224397 0.143747,0.347394 0.100632,0.108582 0.182966,0.212827 0.182966,0.231654 0,0.08877 -0.218885,0.01924 -0.331633,-0.105349 z m -0.08816,-1.463244 c 0.02594,-0.04198 0.06232,-0.07633 0.08083,-0.07633 0.01851,0 0.03366,0.03435 0.03366,0.07633 0,0.04198 -0.03637,0.07633 -0.08083,0.07633 -0.04445,0 -0.05961,-0.03435 -0.03366,-0.07633 z m -0.03816,-1.064043 c 0,-0.0395 0.03435,-0.09305 0.07633,-0.118992 0.04198,-0.02594 0.07633,0.0064 0.07633,0.07182 0,0.06545 -0.03435,0.118992 -0.07633,0.118992 -0.04198,0 -0.07633,-0.03232 -0.07633,-0.07182 z m -9.053265,3.499699 c 0.111446,-0.08767 0.251834,-0.254536 0.311971,-0.37083 0.104116,-0.201338 0.14143,-0.213313 0.780805,-0.25057 2.505838,-0.146019 4.409536,-1.82402 4.670759,-4.117011 0.04624,-0.405952 0.08409,-0.775173 0.08409,-0.820492 0,-0.04635 -0.145241,-0.08239 -0.33201,-0.08239 -0.456397,0 -0.923351,0.337678 -1.049585,0.759008 -0.08479,0.283028 -0.07636,0.328424 0.114585,0.616969 0.133337,0.201486 0.189213,0.364721 0.158245,0.462293 -0.05419,0.170739 -1.194481,1.340451 -1.715255,1.759511 -0.740207,0.595637 -1.479511,0.833565 -2.651596,0.853357 l -0.821185,0.01387 -0.02266,0.565294 c -0.01247,0.31091 -0.005,0.611439 0.01669,0.667842 0.0565,0.147235 0.221994,0.126569 0.455161,-0.05684 z m 8.309098,0.02734 c 0.147163,-0.04231 0.174486,-0.138953 0.0594,-0.210081 -0.08819,-0.0545 -0.460106,0.17405 -0.460106,0.282748 0,0.04217 0.05917,0.05135 0.133569,0.02072 0.07346,-0.03025 0.193674,-0.07227 0.267137,-0.09339 z m -2.076815,-0.174831 c 0.166242,-0.08481 0.302259,-0.168998 0.302259,-0.187081 0,-0.0397 -0.59151,0.220426 -0.662369,0.291284 -0.09398,0.09398 0.05765,0.0501 0.36011,-0.104203 z m 0.661211,-0.618164 c 0.532224,-0.213006 0.784236,-0.338713 0.785045,-0.39159 4.58e-4,-0.03149 -0.02995,-0.05724 -0.06762,-0.05724 -0.09184,0 -1.000056,0.45248 -1.000056,0.498235 0,0.05324 0.04645,0.04512 0.282627,-0.0494 z m 1.053063,-0.159346 c 0.05332,-0.0568 0.01882,-0.06699 -0.114488,-0.03381 -0.104946,0.02613 -0.233744,0.04798 -0.286218,0.04855 -0.05248,6.1e-4 -0.09541,0.03911 -0.09541,0.08564 0,0.100294 0.379887,0.02343 0.496112,-0.100385 z m 3.314254,-0.823789 c 0.07499,-0.788345 0.311531,-1.69752 0.573377,-2.203872 0.120597,-0.233209 0.121934,-0.268724 0.01418,-0.37648 -0.107755,-0.107753 -0.133109,-0.106189 -0.26877,0.01658 -0.120147,0.108731 -0.255598,0.130672 -0.684416,0.110861 -0.294042,-0.01358 -0.55596,-0.0033 -0.582039,0.02272 -0.02608,0.02608 -0.06427,0.569891 -0.08485,1.208472 -0.03017,0.935639 -0.01585,1.194011 0.07378,1.330804 0.186706,0.284948 0.849084,0.886023 0.866318,0.786139 0.0089,-0.0516 0.05049,-0.454449 0.09242,-0.895225 z m 0.797748,0.753708 c 0.05997,-0.299848 0.06327,-2.32122 0.0037,-2.261643 -0.132387,0.132387 -0.335148,1.237075 -0.336313,1.832316 -0.0012,0.602583 0.01268,0.667843 0.141801,0.667843 0.09922,0 0.157738,-0.07315 0.190812,-0.238516 z m 0.933926,-0.28896 0.313786,-0.142498 0.04833,-0.599993 c 0.08329,-1.033957 0.08043,-3.003508 -0.0045,-3.088414 -0.05391,-0.05391 -0.189503,0.06086 -0.431686,0.365342 l -0.353095,0.443932 -0.0023,0.686924 c -0.0013,0.377808 -0.02128,1.090492 -0.04451,1.583741 -0.04725,1.003235 -0.05489,0.991118 0.473929,0.750966 z m -5.007765,-0.0068 c 0,-0.04198 -0.03232,-0.07633 -0.07182,-0.07633 -0.0395,0 -0.09305,0.03435 -0.118992,0.07633 -0.02594,0.04198 0.0064,0.07633 0.07182,0.07633 0.06545,0 0.118992,-0.03435 0.118992,-0.07633 z m -0.534275,-0.07633 c 0,-0.04198 0.05355,-0.07633 0.118992,-0.07633 0.06545,0 0.0982,-0.03364 0.07278,-0.07476 -0.02909,-0.04707 -0.101431,-0.04027 -0.195317,0.01836 -0.159709,0.09974 -0.197768,0.209051 -0.07279,0.209051 0.04198,0 0.07633,-0.03435 0.07633,-0.07633 z m -2.796419,-0.343461 c 0.02416,-0.06297 0.01067,-0.114488 -0.02999,-0.114488 -0.04066,0 -0.07393,0.05152 -0.07393,0.114488 0,0.06297 0.01349,0.114487 0.02999,0.114487 0.0165,0 0.04977,-0.05152 0.07393,-0.114487 z m 3.292531,-0.267096 c 0.02594,-0.04198 -0.0064,-0.07633 -0.07182,-0.07633 -0.06545,0 -0.118992,0.03435 -0.118992,0.07633 0,0.04198 0.03232,0.07633 0.07182,0.07633 0.0395,0 0.09305,-0.03435 0.118992,-0.07633 z M 29.71683,36.288627 c 0.187342,-0.05638 0.491108,-0.17875 0.675038,-0.271929 0.370785,-0.187843 1.82275,-1.567764 1.82275,-1.73231 0,-0.05739 -0.09874,-0.209996 -0.219432,-0.339132 l -0.219433,-0.234792 -0.372084,0.197699 c -0.425491,0.226075 -1.181834,0.432814 -1.583425,0.432814 -0.227139,0 -0.347928,0.07104 -0.713782,0.419786 -0.266872,0.254395 -0.50815,0.419787 -0.612394,0.419787 -0.257413,0 -0.215975,-0.23275 0.09512,-0.534274 0.146926,-0.142405 0.267137,-0.286528 0.267137,-0.320272 0,-0.03374 -0.251362,-0.06135 -0.558583,-0.06135 -0.307221,0 -0.73731,-0.05308 -0.955753,-0.117946 -0.218442,-0.06487 -0.430753,-0.09719 -0.471802,-0.07182 -0.04105,0.02537 -0.07463,0.178286 -0.07463,0.339814 0,0.261446 0.04399,0.329964 0.400706,0.624126 0.511683,0.421956 0.500195,0.402535 0.503673,0.85151 0.0016,0.209397 0.03064,0.407833 0.06448,0.440968 0.165228,0.161778 1.359832,0.135667 1.95242,-0.04268 z m -1.37145,-0.24147 c -0.06173,-0.160886 0.660504,-0.866607 0.886894,-0.866607 0.299337,0 0.193393,0.328159 -0.217912,0.674976 -0.402139,0.33909 -0.591574,0.393353 -0.668982,0.191631 z m 13.180873,-3.203049 c 0,-0.111479 -0.291393,-0.334928 -0.43677,-0.334928 -0.05363,0 -0.0975,0.05031 -0.0975,0.111802 0,0.222892 -0.305948,0.288341 -1.213733,0.259644 -0.852862,-0.02696 -0.88604,-0.0221 -0.908198,0.133125 -0.01902,0.133223 0.02723,0.169407 0.267137,0.209053 0.159575,0.02637 0.436843,0.04832 0.616152,0.04879 0.264774,6.87e-4 0.3409,0.03351 0.405242,0.174722 0.04358,0.09563 0.171637,0.22932 0.284583,0.297079 0.204857,0.122899 0.20642,0.122076 0.644224,-0.339393 0.241377,-0.254425 0.438868,-0.506374 0.438868,-0.559889 z m -2.040238,0.91253 c -0.05167,-0.0209 -0.154713,-0.02218 -0.228974,-0.0028 -0.07426,0.01935 -0.03198,0.03645 0.09395,0.03801 0.125936,0.0015 0.186696,-0.01428 0.135021,-0.03518 z M 29.276111,33.236284 c 0.500242,-0.08101 0.780758,-0.195026 2.043982,-0.830822 1.407721,-0.708522 1.864202,-1.064126 1.935094,-1.507456 0.06428,-0.40201 0.161891,-0.441066 0.386152,-0.154511 0.102941,0.131534 0.227609,0.238973 0.27704,0.238752 0.04943,-2.29e-4 0.537408,-0.232058 1.084394,-0.515193 0.546986,-0.283135 1.723076,-0.892601 2.613533,-1.354366 0.973988,-0.505082 1.636896,-0.894023 1.663897,-0.976244 0.08881,-0.270427 -0.205307,-0.96695 -0.556687,-1.318328 -0.594792,-0.594794 -0.715818,-0.621613 -3.086251,-0.683914 -1.147829,-0.03016 -2.111772,-0.06931 -2.142097,-0.08697 -0.06866,-0.03999 -0.194965,0.01771 -3.557453,1.624998 -0.559649,0.267515 -1.047826,0.486391 -1.084838,0.486391 -0.115644,0 -1.065101,0.927694 -1.065101,1.040688 0,0.0855 0.05813,0.07788 0.286218,-0.03751 0.630678,-0.319059 1.454421,-0.391203 1.989004,-0.174199 0.721687,0.292953 1.235722,1.038892 1.235722,1.793205 0,0.425286 -0.191239,0.961907 -0.385611,1.082036 -0.156897,0.09697 -0.157108,-0.02542 -5.35e-4,-0.31753 0.211736,-0.395053 0.209427,-0.999796 -0.0054,-1.424366 -0.163268,-0.322595 -0.561385,-0.741127 -0.704986,-0.741127 -0.04227,0 0.01151,0.09445 0.119521,0.209894 0.268675,0.287167 0.418226,0.604645 0.480529,1.02011 0.09793,0.653044 -0.411636,1.465153 -1.077658,1.717497 l -0.295777,0.112064 0.340905,-0.04499 c 0.188123,-0.02483 0.453219,-0.130658 0.591517,-0.236145 0.177341,-0.135264 0.250613,-0.159508 0.250613,-0.08293 0,0.05952 -0.145971,0.206115 -0.32438,0.325752 -0.262118,0.175772 -0.427387,0.223108 -0.861035,0.246617 -0.511111,0.02771 -0.567418,0.01311 -1.183036,-0.306664 -1.041032,-0.540753 -1.368004,-1.1918 -1.108196,-2.206571 0.325046,-1.269579 0.857296,-1.883624 2.197832,-2.535589 1.73343,-0.843049 2.64988,-1.272045 2.717421,-1.272045 0.03806,0 0.110784,-0.0501 0.161607,-0.111343 0.07614,-0.09174 0.05762,-0.120072 -0.105142,-0.160924 -0.299402,-0.07515 -0.429509,-0.02248 -1.95302,0.790452 -0.776605,0.414395 -1.824164,0.970059 -2.327908,1.234811 -1.498792,0.787717 -1.585513,0.919471 -1.627445,2.472544 -0.01863,0.690175 0.0041,1.174759 0.0654,1.393696 0.114102,0.40753 0.57745,0.952928 0.966351,1.137473 0.258388,0.122614 1.341718,0.270348 1.626075,0.22175 0.06297,-0.01076 0.251872,-0.04181 0.419786,-0.06901 z m 3.296879,-3.569431 c -0.278918,-0.05787 -0.455798,-0.16286 -0.738799,-0.438511 -0.466201,-0.454095 -0.540509,-0.749279 -0.316244,-1.256266 0.140295,-0.317159 0.211472,-0.379548 0.670456,-0.58766 0.407639,-0.184833 0.575062,-0.222986 0.812143,-0.185076 0.385085,0.06158 0.648211,0.201727 0.92463,0.492488 0.195321,0.205455 0.221709,0.288214 0.217985,0.683637 -0.0059,0.621336 -0.294624,1.089857 -0.757245,1.228608 -0.11948,0.03583 -0.268755,0.08174 -0.331724,0.102012 -0.06297,0.02027 -0.279509,0.0026 -0.481202,-0.03923 z m 1.358938,-0.821302 c 0.06512,-0.125936 0.08439,-0.228974 0.04281,-0.228974 -0.08185,0 -0.233619,0.244665 -0.233619,0.376606 0,0.141749 0.06862,0.08865 0.190811,-0.147632 z m -1.169148,-0.03816 c 0.04781,-0.104946 0.115774,-0.190812 0.151014,-0.190812 0.108115,0 0.07102,-0.280847 -0.05041,-0.381624 -0.06297,-0.05226 -0.114488,-0.156641 -0.114488,-0.23196 0,-0.243243 -0.184885,-0.215405 -0.427246,0.06433 l -0.236435,0.272896 0.160109,0.328751 c 0.182915,0.375578 0.384797,0.42958 0.51746,0.138417 z m 2.303087,-0.611571 c -0.05778,-0.15055 0.104646,-0.34249 0.289812,-0.34249 0.184189,0 0.26371,0.195497 0.140102,0.344434 -0.122097,0.147119 -0.373149,0.145984 -0.429914,-0.002 z m 0.812345,-0.03451 c 0,-0.20127 0.289144,-0.362571 0.352761,-0.196788 0.0693,0.180614 -0.02542,0.346753 -0.197715,0.346753 -0.103237,0 -0.155046,-0.05011 -0.155046,-0.149965 z m 0.794417,0.04478 c -0.06178,-0.160983 0.02493,-0.276432 0.20762,-0.276432 0.115306,0 0.14739,0.04249 0.129063,0.170951 -0.02847,0.199511 -0.271395,0.27562 -0.336683,0.105481 z m -1.6048,-0.692079 c -0.06391,-0.16653 0.11498,-0.359725 0.307593,-0.332204 0.112997,0.01614 0.159328,0.07825 0.159328,0.213576 0,0.151518 -0.04332,0.195794 -0.210328,0.215005 -0.137771,0.01585 -0.226287,-0.0174 -0.256593,-0.09638 z m 0.861267,0.05946 c -0.09669,-0.09669 -0.05045,-0.314577 0.07716,-0.363541 0.162132,-0.06222 0.365827,0.134417 0.304581,0.294019 -0.04639,0.120889 -0.286618,0.16464 -0.381736,0.06952 z m 0.754784,-0.01855 c -0.07376,-0.119347 0.04374,-0.312187 0.190217,-0.312187 0.206977,0 0.269211,0.160761 0.107899,0.278715 -0.164976,0.120634 -0.239103,0.128956 -0.298116,0.03347 z m -5.377805,5.369176 c 0.14288,-0.06563 0.311301,-0.150364 0.374269,-0.188297 0.06297,-0.03793 0.296843,-0.176828 0.519722,-0.308652 0.222878,-0.131825 0.389604,-0.255312 0.370501,-0.274416 -0.04096,-0.04096 -1.317281,0.595498 -1.538984,0.767445 -0.198085,0.15363 -0.05586,0.15566 0.274492,0.004 z m 10.725792,-0.473361 c 0.0472,-0.03084 0.163058,-0.236393 0.257454,-0.456781 0.09439,-0.220388 0.19943,-0.400706 0.233411,-0.400706 0.03398,0 0.08377,-0.0693 0.110655,-0.153984 0.05894,-0.185703 0.495778,-0.608417 0.629257,-0.608911 0.05248,-2.29e-4 0.09541,-0.03518 0.09541,-0.07776 0,-0.08628 -0.889789,-0.05036 -1.644681,0.06639 -0.482456,0.07461 -1.614087,0.446 -1.678994,0.551021 -0.02067,0.03344 0.126235,0.08236 0.326447,0.108708 0.200211,0.02635 0.413369,0.05437 0.473686,0.06226 0.06032,0.0079 0.137176,0.120514 0.170801,0.250275 0.04539,0.175163 0.140119,0.271545 0.367803,0.374216 0.168668,0.07606 0.345023,0.184502 0.3919,0.240986 0.09652,0.116298 0.144458,0.124253 0.266855,0.04429 z m -1.574162,-0.242383 c 0,-0.08148 -0.02576,-0.163769 -0.05724,-0.182864 -0.03149,-0.01909 -0.382751,-0.04688 -0.780595,-0.06175 -0.658896,-0.02462 -0.725875,-0.01424 -0.751677,0.116473 -0.04392,0.222515 0.120943,0.273852 0.883511,0.275114 0.648367,0.0011 0.706005,-0.01093 0.706005,-0.146976 z m -3.737371,-0.549199 c 0.02239,-0.194635 0.0867,-0.409299 0.142913,-0.47703 0.05622,-0.06773 0.07918,-0.123149 0.05102,-0.123149 -0.04485,0 -1.406256,0.699607 -1.608496,0.82658 -0.123667,0.07764 0.342953,0.151578 0.877736,0.139078 l 0.496111,-0.0116 z m 7.595311,-0.365049 c 0.660223,-0.219885 1.620407,-0.375763 2.438862,-0.395931 0.356409,-0.0087 0.363974,-0.01285 0.114487,-0.06161 -0.146925,-0.02871 -0.902541,-0.05052 -1.679148,-0.04846 -1.586427,0.0042 -1.76987,0.05315 -2.272515,0.606404 -0.137449,0.151288 -0.283421,0.275068 -0.324381,0.275068 -0.07823,0 -0.104129,0.250205 -0.03324,0.321097 0.02268,0.02268 0.271691,-0.07303 0.553355,-0.212686 0.281664,-0.139659 0.822823,-0.357404 1.202575,-0.48388 z m -15.077696,0.52114 c 0.08615,-0.06093 0.09088,-0.09055 0.01908,-0.119679 -0.148226,-0.06015 -0.114825,-0.174537 0.133568,-0.45744 0.289851,-0.330122 0.287969,-0.488271 -0.0098,-0.827457 -0.227736,-0.259376 -0.232729,-0.278717 -0.107637,-0.416941 0.125449,-0.138619 0.121045,-0.150185 -0.100859,-0.264936 -0.323341,-0.167206 -0.838292,-0.152154 -1.117351,0.03266 -0.207471,0.137402 -0.21327,0.151692 -0.06175,0.152147 0.268638,8.09e-4 0.271927,0.121213 0.01333,0.488088 -0.23253,0.329892 -0.237312,0.351388 -0.115626,0.519787 0.388093,0.537076 0.384908,0.529801 0.294968,0.673819 -0.07446,0.119231 -0.05688,0.150827 0.119883,0.215462 0.278649,0.101889 0.791015,0.104357 0.932228,0.0045 z m 4.961117,-0.449913 c 0.104946,-0.07377 0.374544,-0.22671 0.599106,-0.339863 0.224562,-0.113152 0.393142,-0.220884 0.374623,-0.239404 -0.05064,-0.05064 -1.736978,0.847432 -1.736978,0.92503 0,0.04876 0.568162,-0.208628 0.763249,-0.345763 z m 5.646939,-0.182275 c 0.326865,-0.14165 0.939923,-0.353843 1.362353,-0.471542 0.422429,-0.117698 0.750605,-0.242227 0.729281,-0.276731 -0.02132,-0.0345 -0.488305,-0.06273 -1.037734,-0.06273 -0.836037,0 -1.074932,0.02731 -1.46475,0.167474 -0.530915,0.190892 -0.57749,0.236763 -0.579104,0.570334 -0.002,0.403863 0.193557,0.41832 0.989954,0.0732 z m 10.56861,0.07311 c 0.587046,-0.245284 0.64137,-0.769744 0.107918,-1.04189 -0.330982,-0.168855 -0.568894,-0.155381 -0.886762,0.05022 -0.38278,0.247587 -0.05342,0.970924 0.498563,1.094944 0.01185,0.0027 0.137969,-0.04381 0.280281,-0.103274 z m -16.84682,-0.09066 c -0.02536,-0.02536 -0.09119,-0.02807 -0.146289,-0.006 -0.06089,0.02437 -0.0428,0.04245 0.04611,0.04611 0.08046,0.0033 0.125539,-0.01472 0.100176,-0.04009 z m 15.077204,-0.232924 c -0.05167,-0.02091 -0.154713,-0.02218 -0.228974,-0.0028 -0.07426,0.01935 -0.03198,0.03646 0.09395,0.03801 0.125936,0.0015 0.186696,-0.01428 0.135021,-0.03518 z m -9.313086,-0.880867 c 0.115442,-0.04389 0.209894,-0.106092 0.209894,-0.138214 0,-0.103269 -0.491764,-0.142638 -0.572437,-0.04583 -0.04198,0.05037 -0.162191,0.152262 -0.267138,0.226414 l -0.190811,0.134822 0.305299,-0.04869 c 0.167915,-0.02678 0.399752,-0.0846 0.515193,-0.128502 z m -2.423315,-0.137617 c 0.02594,-0.04198 0.01283,-0.07633 -0.02915,-0.07633 -0.04198,0 -0.09755,0.03435 -0.123496,0.07633 -0.02594,0.04198 -0.01283,0.07633 0.02915,0.07633 0.04198,0 0.09755,-0.03435 0.123496,-0.07633 z m 0.307319,-0.214234 c -0.0235,-0.0235 -0.08508,-4.8e-5 -0.13686,0.05211 -0.07481,0.07538 -0.06605,0.08414 0.04273,0.04273 0.07527,-0.02867 0.117633,-0.07134 0.09413,-0.09484 z m 3.405967,-0.709192 c -0.03052,-0.434871 -0.05196,-0.437137 -0.730832,-0.07724 -0.508705,0.269687 -0.534458,0.390062 -0.08345,0.390062 0.437649,0 0.649039,0.10579 0.653546,0.327066 0.0031,0.1509 0.01331,0.146004 0.0954,-0.04563 0.05058,-0.118071 0.07998,-0.385489 0.06533,-0.594264 z m -1.650495,-0.206706 c -0.0235,-0.0235 -0.08509,-4.9e-5 -0.136861,0.05211 -0.07481,0.07538 -0.06605,0.08414 0.04273,0.04273 0.07527,-0.02866 0.117634,-0.07134 0.09413,-0.09484 z m 1.005694,-0.946808 c 0.497926,-0.215732 2.617718,-1.375265 2.617718,-1.4319 0,-0.07105 -2.529713,-0.179809 -3.300517,-0.141902 l -0.514659,0.02531 0.212144,0.228975 c 0.297795,0.32142 0.524034,0.717238 0.588942,1.030386 0.08816,0.425353 0.08585,0.423665 0.396372,0.28913 z M 27.556117,27.171422 c 0.04346,-0.0812 0.07901,-0.220133 0.07901,-0.308747 0,-0.168328 0.722147,-1.299093 0.829648,-1.299093 0.03396,0 0.10087,-0.08587 0.148688,-0.190812 0.04781,-0.104947 0.120951,-0.190812 0.162521,-0.190812 0.04157,0 0.308489,-0.147254 0.593154,-0.327232 0.284665,-0.179977 0.603438,-0.370801 0.708384,-0.424053 0.296869,-0.150637 0.489688,-0.310966 0.437157,-0.363498 -0.08798,-0.08798 -1.41525,0.690063 -1.882139,1.103298 -0.509789,0.451205 -0.924844,1.074185 -1.148215,1.723421 -0.140044,0.407046 -0.0936,0.586572 0.07179,0.277528 z m 1.670869,-0.759686 c 0.871258,-0.466248 0.954106,-0.529883 1.087629,-0.835401 0.241108,-0.551687 0.162998,-0.62144 -0.249324,-0.222646 -0.141058,0.136431 -0.376329,0.331381 -0.522825,0.433222 -0.146495,0.101843 -0.293821,0.230641 -0.327392,0.286219 -0.03357,0.05557 -0.0979,0.101051 -0.142956,0.101051 -0.09702,0 -1.024792,0.65203 -1.099293,0.772574 -0.09001,0.145639 0.266188,-0.0063 1.254161,-0.535019 z m 15.562155,0.175303 c 0.124094,-0.08027 0.171731,-0.185003 0.171731,-0.377577 0,-0.218759 -0.04443,-0.293593 -0.248055,-0.417742 -0.318713,-0.194323 -0.595863,-0.19224 -0.848362,0.0064 -0.229184,0.180275 -0.256717,0.415373 -0.07846,0.669883 0.227881,0.325345 0.61346,0.371109 1.003137,0.11906 z M 28.4747,26.212343 c 0.05226,-0.06297 0.127588,-0.114487 0.1674,-0.114487 0.125511,0 1.036842,-0.683817 1.484265,-1.113719 0.23628,-0.227028 0.38034,-0.412778 0.320131,-0.412778 -0.06021,0 -0.142098,0.02973 -0.181978,0.06606 -0.03988,0.03633 -0.278586,0.176955 -0.530458,0.312492 -0.56391,0.30345 -1.183035,0.767231 -1.183035,0.886199 0,0.04868 -0.07119,0.179008 -0.158189,0.289615 -0.163708,0.208121 -0.08665,0.289659 0.08186,0.08662 z m -0.956021,-0.415996 c 0.06907,-0.133576 0.116447,-0.42549 0.116447,-0.717557 v -0.492373 l -0.858654,-0.052 c -1.829357,-0.110773 -2.188733,0.04874 -1.039167,0.461245 0.659894,0.236792 1.207748,0.573132 1.414597,0.86845 0.149237,0.213068 0.229189,0.198294 0.366777,-0.06777 z m 3.990261,-0.521992 c 0.506226,-0.508755 0.730652,-0.803078 0.928813,-1.218087 l 0.261295,-0.547237 -0.309804,-0.441978 c -0.42876,-0.611683 -0.75621,-1.333942 -0.957121,-2.111131 -0.09366,-0.362315 -0.190732,-0.658756 -0.21571,-0.658756 -0.02498,0 -0.05326,0.930011 -0.06284,2.066691 -0.01869,2.215647 -0.05998,2.653352 -0.30374,3.218806 -0.08596,0.199399 -0.12301,0.362544 -0.08234,0.362544 0.04067,0 0.374321,-0.301884 0.741455,-0.670852 z m 9.16284,0.04049 c 0.02795,-0.434897 -0.09772,-0.480153 -0.210063,-0.07563 -0.111081,0.399985 -0.100493,0.492051 0.05323,0.462858 0.100642,-0.01911 0.139302,-0.114564 0.156831,-0.38722 z m -2.160359,-0.0498 c 0.589048,-0.283124 0.607197,-0.308442 0.354114,-0.493975 -0.121196,-0.08885 -0.446462,-0.281753 -0.722814,-0.428678 l -0.502458,-0.267138 -1.185569,0.604995 c -0.652063,0.332747 -1.167917,0.622646 -1.146342,0.64422 0.04899,0.04899 1.396072,0.124738 2.210845,0.124318 0.487563,-2.29e-4 0.687497,-0.03728 0.992224,-0.183742 z m -2.643237,-0.750444 c 1.784667,-0.957908 1.808564,-0.967755 2.077831,-0.856221 0.179008,0.07415 0.280589,0.05229 0.730133,-0.157099 0.510695,-0.237872 1.797784,-0.609062 2.111908,-0.609062 0.27844,0 0.03165,-0.119729 -0.541419,-0.262666 -0.567708,-0.1416 -1.044412,-0.129034 -1.620729,0.04272 -0.55271,0.164722 -2.112028,0.7938 -2.442396,0.98534 -0.188904,0.109522 -0.91895,0.503985 -1.622324,0.876584 -0.703375,0.372598 -1.252914,0.703059 -1.221198,0.734354 0.06682,0.06593 0.766243,0.119671 0.9354,0.07186 0.06297,-0.01779 0.779726,-0.389414 1.592794,-0.825824 z m -3.226423,0.445694 c 1.0628,-0.525012 2.03809,-1.64345 2.148784,-2.464171 0.04669,-0.346139 -0.02804,-0.672398 -0.154066,-0.672615 -0.05167,-7.7e-5 -0.360925,-0.137631 -0.687225,-0.305651 l -0.593273,-0.30549 -0.07457,0.196133 c -0.04102,0.107873 -0.07457,0.383235 -0.07457,0.611917 0,0.734337 -0.587336,2.419079 -0.92605,2.656322 -0.146726,0.102772 -0.367951,0.58155 -0.268712,0.58155 0.01454,0 0.297897,-0.134099 0.629682,-0.297995 z m -8.410976,-0.03726 c 0.379668,-0.158635 0.437804,-0.668817 0.107455,-0.942982 -0.172852,-0.143454 -0.692627,-0.188929 -0.838678,-0.07337 -0.37407,0.295958 -0.08912,0.995464 0.455341,1.117793 0.01185,0.0027 0.13599,-0.04298 0.275882,-0.101435 z m 5.037242,-1.205751 c -0.0044,-0.23099 -0.08511,-0.674271 -0.179243,-0.98507 -0.206963,-0.683295 -0.678248,-1.561839 -0.782112,-1.457975 -0.05636,0.05636 -0.096,2.145868 -0.06508,3.430475 0.0038,0.159049 0.04158,0.144658 0.519321,-0.197965 l 0.515193,-0.369485 z m 10.906641,0.737897 c 0.247327,-0.50429 0.251041,-0.546389 0.05374,-0.60901 -0.102666,-0.03259 -0.278367,0.0327 -0.534274,0.198523 -0.209716,0.135891 -0.381301,0.27121 -0.381301,0.300707 0,0.0295 0.119977,0.135338 0.266616,0.235202 0.146638,0.09986 0.26685,0.207328 0.267137,0.238812 0.0015,0.168053 0.145312,0.0085 0.328082,-0.364234 z M 34.546343,23.97177 c 0.03988,-0.03592 0.415971,-0.245884 0.835758,-0.466581 1.087734,-0.571859 1.190501,-0.695003 0.280155,-0.335709 -0.280022,0.110519 -0.672354,0.316596 -0.871849,0.457949 -0.199497,0.141354 -0.396987,0.257007 -0.438869,0.257007 -0.04188,0 -0.07615,0.03435 -0.07615,0.07633 0,0.0934 0.171743,0.100377 0.270953,0.01101 z m 4.610995,-0.238307 c 0.334254,-0.197084 0.44377,-0.223247 0.823852,-0.196822 0.241094,0.01676 0.507158,0.05214 0.591255,0.07863 0.111845,0.03522 0.222568,-0.02373 0.41234,-0.219521 l 0.259438,-0.267672 -0.336016,0.02367 c -0.184808,0.01303 -0.473399,0.04827 -0.641315,0.07834 -0.41187,0.07374 -1.793634,0.587721 -1.793634,0.667182 0,0.130605 0.311095,0.05612 0.68408,-0.163808 z m -8.965329,-0.061 0.381625,-0.208412 V 23.011267 22.558483 L 30.03936,22.421794 c -0.730131,-0.186796 -0.81386,-0.183192 -0.732853,0.03156 0.03563,0.09445 0.107481,0.429327 0.15967,0.744168 0.05219,0.31484 0.11008,0.598196 0.128646,0.62968 0.05796,0.09828 0.20245,0.06084 0.597186,-0.154736 z m 6.840703,-1.161154 c 0.351524,-0.05347 0.742173,-0.141392 0.868109,-0.195387 0.220253,-0.09444 0.210078,-0.09873 -0.267136,-0.11275 -1.482254,-0.04354 -1.87361,-0.06314 -2.180782,-0.109203 -0.337794,-0.05065 -0.337939,-0.05057 -0.337939,0.185426 0,0.129855 -0.05152,0.359405 -0.114487,0.510108 -0.06297,0.150704 -0.114488,0.30092 -0.114488,0.333813 0,0.03289 0.339207,-0.06948 0.753794,-0.227494 0.414585,-0.158015 1.041403,-0.331046 1.392929,-0.384513 z m -4.173932,0.132853 c 0.05624,-0.136654 0.107342,-0.568257 0.113776,-0.961051 l 0.01167,-0.712997 -0.408282,-0.470039 c -0.224555,-0.258522 -0.52297,-0.632096 -0.663146,-0.830164 -0.258882,-0.365801 -0.41366,-0.415249 -0.351284,-0.112227 0.01891,0.09188 0.0531,0.390302 0.07596,0.663164 0.04307,0.514043 0.259716,1.369252 0.427452,1.687386 0.174819,0.331572 0.604959,0.983984 0.648748,0.983984 0.02365,0 0.08895,-0.111625 0.145102,-0.248056 z m 12.789016,-0.161371 c 0.224099,-0.309529 0.22956,-0.417737 0.03289,-0.651472 -0.104314,-0.123971 -0.290163,-0.247474 -0.412996,-0.274454 -0.267583,-0.05877 -0.73885,0.141245 -0.802064,0.340414 -0.08172,0.257468 0.187197,0.686491 0.488379,0.779157 0.211395,0.06504 0.581244,-0.03819 0.693795,-0.193645 z m -2.938508,-0.08393 c 0.207518,-0.09502 0.127638,-0.105426 -0.852412,-0.111045 -1.176076,-0.0068 -1.675805,0.07776 -0.90306,0.152701 0.843482,0.0818 1.520957,0.06573 1.755472,-0.04166 z m -6.089293,-0.823249 c 0.04045,-0.05247 0.04809,-0.181271 0.01696,-0.286218 -0.03113,-0.104947 -0.06002,-0.15478 -0.0642,-0.110739 -0.0041,0.04404 -0.12782,0.123543 -0.274745,0.176671 -0.32086,0.116025 -0.34316,0.217712 -0.05724,0.261025 0.115441,0.01749 0.231447,0.03694 0.257792,0.04323 0.02634,0.0063 0.081,-0.0315 0.121448,-0.08397 z m 0.993239,-0.326858 c 0.01619,-0.248244 0.112865,-0.534597 0.288104,-0.853405 0.145053,-0.263892 0.253637,-0.479803 0.241299,-0.479803 -0.01234,0 -0.200593,0.08595 -0.418343,0.190993 -0.384711,0.18559 -0.513985,0.343282 -0.281422,0.343282 0.159763,0 0.149117,0.02964 -0.152649,0.424972 -0.333047,0.436314 -0.353185,0.696973 -0.05724,0.740952 0.332312,0.04938 0.35449,0.02798 0.380255,-0.366991 z m -1.657061,-0.08399 c 0.412512,-0.272986 0.381724,-0.299122 -0.07796,-0.06619 -0.209893,0.106361 -0.381624,0.209979 -0.381624,0.230261 0,0.08638 0.176139,0.0235 0.459585,-0.164078 z m 0.761613,-0.409644 c 0.06297,-0.04069 0.08014,-0.07398 0.03816,-0.07398 -0.04198,0 -0.127845,0.03329 -0.190813,0.07398 -0.06297,0.04069 -0.08014,0.07398 -0.03816,0.07398 0.04198,0 0.127844,-0.03329 0.190813,-0.07398 z m -8.378043,-1.406745 c 0.130811,-0.02864 0.255224,-0.135987 0.333883,-0.288097 0.117009,-0.22627 0.116497,-0.258943 -0.0077,-0.489495 -0.230219,-0.427489 -0.662752,-0.508279 -1.006528,-0.188003 -0.121861,0.11353 -0.145273,0.202518 -0.108861,0.41377 0.05246,0.30433 0.336429,0.673079 0.483318,0.627605 0.05354,-0.01658 0.191174,-0.05068 0.305851,-0.07578 z m 11.636012,-0.05674 c 0.296151,-0.27822 0.228215,-0.756214 -0.134108,-0.94358 -0.27443,-0.141912 -0.406916,-0.140452 -0.719607,0.0079 -0.303637,0.144085 -0.371853,0.351686 -0.228386,0.695048 0.173269,0.414691 0.758323,0.544776 1.082101,0.240602 z m -8.421043,-4.142757 c 0.254526,-0.235887 0.26001,-0.524966 0.01461,-0.770361 -0.239577,-0.239578 -0.614983,-0.248945 -0.857206,-0.02139 -0.238466,0.224027 -0.2223,0.487061 0.04645,0.755815 0.272658,0.272657 0.528261,0.284194 0.796137,0.03593 z m 4.6288,29.266943 c 0,-0.04198 0.03435,-0.07633 0.07633,-0.07633 0.04198,0 0.07633,0.03435 0.07633,0.07633 0,0.04198 -0.03435,0.07633 -0.07633,0.07633 -0.04198,0 -0.07633,-0.03435 -0.07633,-0.07633 z m 0.3053,-0.139753 c 0,-0.117848 1.12781,-0.589675 1.210898,-0.506587 0.06945,0.06945 -0.310926,0.337045 -0.485813,0.34177 -0.08395,0.0023 -0.219319,0.05455 -0.300805,0.116184 -0.160259,0.121214 -0.42428,0.151477 -0.42428,0.04863 z m 2.289746,-0.585334 c 0,-0.06297 -0.03435,-0.114488 -0.07633,-0.114488 -0.126932,0 -0.08593,-0.189881 0.07929,-0.367232 0.0856,-0.09187 0.237658,-0.167041 0.337923,-0.167041 0.103544,0 0.24714,-0.08243 0.332392,-0.190812 0.163534,-0.207901 0.318936,-0.250855 0.318936,-0.08816 0,0.136484 -0.247856,0.355291 -0.40246,0.355291 -0.06782,0 -0.218553,0.08194 -0.334972,0.18207 -0.172025,0.14797 -0.194388,0.202893 -0.119405,0.293241 0.05074,0.06115 0.06967,0.13377 0.04204,0.161392 -0.08723,0.08723 -0.177429,0.05456 -0.177429,-0.06427 z m -0.534275,-0.190812 c 0,-0.04198 0.03435,-0.07633 0.07633,-0.07633 0.04198,0 0.07633,0.03435 0.07633,0.07633 0,0.04198 -0.03435,0.07633 -0.07633,0.07633 -0.04198,0 -0.07633,-0.03435 -0.07633,-0.07633 z M 36.726782,43.35445 c -0.08292,-0.05252 -0.07082,-0.07782 0.05656,-0.118244 0.18289,-0.05805 0.341024,0.0089 0.274646,0.116343 -0.05476,0.08861 -0.19305,0.0894 -0.331207,0.0019 z m -3.912544,-0.452701 c -0.141513,-0.126441 -0.219485,-0.253565 -0.187383,-0.305505 0.07141,-0.115535 0.351012,0.02477 0.351012,0.176137 0,0.05866 0.06869,0.12846 0.15265,0.155107 0.08395,0.02665 0.15265,0.08048 0.15265,0.119631 0,0.139281 -0.230228,0.06791 -0.468929,-0.14537 z m 3.965561,0.08809 c 0.0551,-0.02205 0.120929,-0.01934 0.14629,0.006 0.02536,0.02536 -0.01972,0.04341 -0.100176,0.04009 -0.08891,-0.0037 -0.107,-0.02174 -0.04611,-0.04611 z m -4.030906,-0.814798 c 0,-0.208039 0.202832,-0.29209 0.542684,-0.224881 0.177736,0.03515 0.337371,0.106555 0.354747,0.158681 0.02355,0.07064 -0.01621,0.0766 -0.156092,0.02342 -0.103225,-0.03924 -0.217803,-0.04396 -0.254618,-0.01046 -0.03682,0.03349 -0.161386,0.08316 -0.276828,0.110368 -0.152397,0.03591 -0.209893,0.02027 -0.209893,-0.05713 z m -12.860741,-0.04897 c -0.02595,-0.04198 -0.0108,-0.07633 0.03366,-0.07633 0.04445,0 0.08083,0.03435 0.08083,0.07633 0,0.04198 -0.01515,0.07633 -0.03366,0.07633 -0.01851,0 -0.05488,-0.03435 -0.08083,-0.07633 z m 5.658602,-0.114487 c 0.02416,-0.06297 0.05743,-0.114487 0.07393,-0.114487 0.0165,0 0.02999,0.05152 0.02999,0.114487 0,0.06297 -0.03327,0.114487 -0.07393,0.114487 -0.04066,0 -0.05416,-0.05152 -0.02999,-0.114487 z m 4.150674,-0.23082 c 0.0531,-0.06398 0.112266,-0.100613 0.131477,-0.0814 0.05294,0.05293 -0.05461,0.197735 -0.146858,0.197735 -0.05061,0 -0.04482,-0.04379 0.01538,-0.116333 z M 18.247166,41.588917 c -0.151143,-0.05069 -0.123082,-0.0594 0.134983,-0.04186 0.179186,0.01217 0.348055,0.0444 0.375264,0.0716 0.06836,0.06835 -0.277943,0.04817 -0.510247,-0.02974 z m 7.289027,0.0029 c 0.02594,-0.04198 0.06232,-0.07633 0.08083,-0.07633 0.01851,0 0.03366,0.03435 0.03366,0.07633 0,0.04198 -0.03637,0.07633 -0.08083,0.07633 -0.04445,0 -0.05961,-0.03435 -0.03366,-0.07633 z m -6.540088,-0.05214 c 0.0551,-0.02205 0.120927,-0.01934 0.146289,0.006 0.02536,0.02536 -0.01971,0.0434 -0.100176,0.04009 -0.08891,-0.0037 -0.107,-0.02174 -0.04611,-0.04611 z m 17.874331,-0.100511 c 0,-0.04198 0.03232,-0.07633 0.07182,-0.07633 0.0395,0 0.09305,0.03435 0.118992,0.07633 0.02594,0.04198 -0.0064,0.07633 -0.07182,0.07633 -0.06545,0 -0.118992,-0.03435 -0.118992,-0.07633 z m -19.997118,-0.53427 c 0,-0.08958 0.05867,-0.08958 0.267138,0 0.135266,0.05813 0.128748,0.0662 -0.05724,0.07096 -0.115442,0.003 -0.209894,-0.02898 -0.209894,-0.07096 z m 25.144647,-0.0071 c -0.02851,-0.04612 -0.0019,-0.133802 0.05917,-0.194849 0.09711,-0.09711 0.122726,-0.09686 0.204772,0.002 0.07647,0.09214 0.06555,0.128101 -0.05917,0.194851 -0.109645,0.05868 -0.167619,0.05811 -0.204772,-0.002 z m 1.912521,0.0071 c -0.02594,-0.04198 -0.01283,-0.07633 0.02915,-0.07633 0.04198,0 0.09755,0.03435 0.123496,0.07633 0.02594,0.04198 0.01283,0.07633 -0.02915,0.07633 -0.04198,0 -0.09755,-0.03435 -0.123496,-0.07633 z m -2.548414,-0.237488 c -0.06945,-0.199225 -0.06583,-0.223416 0.02245,-0.150149 0.122542,0.101702 0.212574,0.387637 0.122053,0.387637 -0.03394,0 -0.09897,-0.10687 -0.144503,-0.237488 z m -3.672063,0.08484 c -0.09784,-0.06323 -0.09507,-0.07416 0.01908,-0.07516 0.07346,-6.1e-4 0.133569,0.03317 0.133569,0.07516 0,0.09309 -0.0086,0.09309 -0.152649,0 z m -21.216104,-0.07336 c -0.06175,-0.03905 -0.08899,-0.09429 -0.06053,-0.122748 0.06985,-0.06985 0.2873,0.01899 0.2873,0.117371 0,0.09694 -0.07902,0.09882 -0.226764,0.0054 z M 25.36311,40.486924 C 25.100645,40.34502 25.100748,40.347302 25.33723,39.914861 l 0.221197,-0.404492 0.236939,0.327084 c 0.228326,0.315196 0.299407,0.565423 0.179694,0.632584 -0.163232,0.09157 -0.458727,0.09973 -0.611951,0.01688 z m 20.036118,-0.745997 c 0.04149,-0.05248 0.0945,-0.146925 0.117807,-0.209893 0.02416,-0.06526 0.04498,-0.02422 0.04841,0.0954 0.0041,0.145205 -0.03214,0.209894 -0.117806,0.209894 -0.08841,0 -0.102257,-0.0273 -0.04841,-0.09541 z M 23.971533,39.501879 c 0,-0.06297 0.03435,-0.135715 0.07633,-0.161659 0.04198,-0.02594 0.07633,0.0043 0.07633,0.06731 0,0.06297 -0.03435,0.135714 -0.07633,0.161658 -0.04198,0.02594 -0.07633,-0.0043 -0.07633,-0.06731 z m 20.111603,-0.199821 c 0.02594,-0.04198 0.07949,-0.07633 0.118992,-0.07633 0.0395,0 0.07182,0.03435 0.07182,0.07633 0,0.04198 -0.05355,0.07633 -0.118992,0.07633 -0.06545,0 -0.09776,-0.03435 -0.07182,-0.07633 z m -20.111603,-0.22447 c 0,-0.08643 0.03435,-0.157154 0.07633,-0.157154 0.04198,0 0.07633,0.04949 0.07633,0.109982 0,0.06049 -0.03435,0.13121 -0.07633,0.157155 -0.04198,0.02594 -0.07633,-0.02355 -0.07633,-0.109983 z m 1.56466,-0.0045 c 0.02594,-0.04198 0.06232,-0.07633 0.08083,-0.07633 0.01851,0 0.03366,0.03435 0.03366,0.07633 0,0.04198 -0.03637,0.07633 -0.08083,0.07633 -0.04445,0 -0.05961,-0.03435 -0.03366,-0.07633 z m 16.484759,-0.231261 c -0.02969,-0.04804 -0.0194,-0.121915 0.02285,-0.164171 0.108428,-0.108429 0.360184,-0.04469 0.360184,0.09118 0,0.137218 -0.307167,0.195754 -0.383037,0.07299 z M 23.971533,38.619636 c 0,-0.08643 0.03435,-0.157154 0.07633,-0.157154 0.04198,0 0.07633,0.04949 0.07633,0.109983 0,0.06049 -0.03435,0.131209 -0.07633,0.157154 -0.04198,0.02594 -0.07633,-0.02355 -0.07633,-0.109983 z m -0.01155,-0.634185 c -0.0077,-0.241377 -0.01675,-0.496111 -0.02025,-0.566076 -0.0035,-0.06996 0.03665,-0.141547 0.08923,-0.159072 0.07098,-0.02366 0.09204,0.09711 0.08179,0.46912 -0.01779,0.645501 -0.132287,0.839945 -0.150768,0.256028 z m 0.262933,-0.832007 c -0.147938,-0.147937 -0.18758,-0.154468 -0.401033,-0.06605 -0.268732,0.111312 -0.269728,0.110837 -0.334489,-0.159777 -0.03447,-0.144044 -0.0058,-0.237113 0.10375,-0.33621 0.08328,-0.07536 0.151942,-0.226157 0.152585,-0.335093 0.0013,-0.220841 0.09575,-0.408351 0.196268,-0.38967 0.03624,0.0068 0.08001,-0.03015 0.09729,-0.08197 0.01948,-0.05845 -0.01317,-0.07711 -0.08604,-0.04915 -0.06459,0.02479 -0.135167,0.02734 -0.156832,0.0057 -0.07047,-0.07047 0.112892,-0.484366 0.214582,-0.484366 0.132986,0 0.190459,0.171902 0.237854,0.711434 0.02296,0.261407 0.09964,0.537508 0.181355,0.653051 0.09731,0.137587 0.128864,0.277735 0.100925,0.448232 -0.04788,0.292157 -0.08718,0.302925 -0.306217,0.08389 z m -6.443477,-0.225022 c -0.407618,-0.152981 -1.010808,-0.491449 -1.04068,-0.583955 -0.05027,-0.155668 0.105014,-0.110184 0.473992,0.138838 0.190897,0.128834 0.458575,0.266219 0.594841,0.305299 0.331063,0.09495 1.01943,0.08934 1.381714,-0.01126 0.352395,-0.09785 0.467018,-0.03352 0.156079,0.0876 -0.296982,0.11568 -1.316711,0.157018 -1.565946,0.06347 z m 1.841579,-0.297737 c 0,-0.04198 0.03637,-0.07633 0.08083,-0.07633 0.04445,0 0.0596,0.03435 0.03366,0.07633 -0.02594,0.04198 -0.06232,0.07633 -0.08083,0.07633 -0.01851,0 -0.03366,-0.03435 -0.03366,-0.07633 z m 0.246466,-0.166961 c 0.04717,-0.141523 0.211483,-0.164996 0.211483,-0.03021 0,0.06647 -0.05438,0.120848 -0.120848,0.120848 -0.06647,0 -0.107252,-0.04078 -0.09064,-0.09064 z m -3.712333,-0.729857 c -0.252048,-0.456447 -0.370954,-0.756718 -0.408027,-1.030385 -0.05012,-0.370008 0.09929,-0.380572 0.168448,-0.01191 0.02831,0.150869 0.152337,0.472821 0.275631,0.715447 0.123294,0.242627 0.224171,0.462651 0.224171,0.488941 0,0.12353 -0.156246,0.02621 -0.260223,-0.162091 z m 4.573233,-0.553355 c 0.09096,-0.310078 0.207697,-0.457193 0.151413,-0.190812 -0.02661,0.125936 -0.08416,0.263321 -0.127884,0.3053 -0.05477,0.05258 -0.06209,0.01697 -0.02353,-0.114488 z m -2.756272,-0.412895 c -0.06491,-0.169143 0.187527,-0.592548 0.336714,-0.564766 0.139476,0.02597 0.414741,0.504437 0.350245,0.608794 -0.06802,0.110072 -0.641941,0.07329 -0.686959,-0.04403 z m 2.816389,-0.8083 c 3.04e-4,-0.419786 0.02974,-0.763248 0.06533,-0.763248 0.03559,0 0.06848,0.163144 0.07307,0.362542 0.0046,0.199399 0.0197,0.482755 0.03355,0.62968 0.02817,0.298742 -0.02138,0.534275 -0.112394,0.534275 -0.0331,0 -0.0599,-0.343462 -0.05957,-0.763249 z m -5.069195,0.133569 c -0.0051,-0.09445 -0.01761,-0.515193 -0.02797,-0.93498 -0.01036,-0.419786 -0.04261,-1.266578 -0.07168,-1.881759 -0.03189,-0.674752 -0.02448,-1.136047 0.01868,-1.162715 0.03934,-0.02431 0.09092,0.05276 0.114625,0.171289 0.05455,0.272726 0.0687,3.979896 0.0152,3.979896 -0.02184,0 -0.04382,-0.07728 -0.04885,-0.171731 z m 2.833567,0.07633 c -0.04507,-0.05248 -0.129352,-0.163874 -0.187303,-0.247556 -0.103155,-0.148957 -0.108881,-0.147679 -0.272982,0.06094 -0.150074,0.190789 -0.208394,0.210705 -0.5573,0.190312 -0.346784,-0.02027 -0.408873,-0.05133 -0.563989,-0.28212 -0.226098,-0.336405 -0.220124,-0.552227 0.02329,-0.841511 0.13732,-0.163196 0.265377,-0.234831 0.419787,-0.234831 0.25185,0 0.255821,-0.01065 0.131863,-0.353443 -0.07706,-0.213088 -0.06864,-0.29055 0.05724,-0.527169 0.08117,-0.152555 0.204566,-0.308314 0.274227,-0.346129 0.184485,-0.100147 0.815948,0.03794 0.943496,0.206331 0.160073,0.211323 0.215868,0.599009 0.113686,0.789936 -0.104633,0.195509 -0.113995,0.184066 0.22679,0.277229 0.286172,0.07824 0.611981,0.472016 0.611981,0.739658 0,0.08428 -0.08761,0.268106 -0.194696,0.4085 -0.174184,0.228365 -0.234179,0.255259 -0.569427,0.255259 -0.206102,0 -0.411604,-0.04293 -0.456668,-0.0954 z m 2.202809,-2.824021 c -0.0056,-0.640175 -0.01831,-1.524589 -0.02822,-1.965366 -0.06642,-2.954934 -0.06195,-4.304337 0.01434,-4.329768 0.04521,-0.01507 0.100966,0.05138 0.123912,0.147658 0.03441,0.144374 0.05882,2.145089 0.07059,5.784933 0.0037,1.15139 -0.0194,1.526498 -0.09409,1.526498 -0.0471,0 -0.08023,-0.445673 -0.08653,-1.163955 z m 32.499159,0.807771 c -0.02798,-0.02798 -0.05088,-0.114717 -0.05088,-0.192738 0,-0.102667 0.160774,-0.215123 0.581964,-0.407066 0.698566,-0.318346 0.966518,-0.345258 0.93076,-0.09348 -0.01807,0.127223 -0.170509,0.245912 -0.588174,0.45795 -0.550184,0.279313 -0.770376,0.338626 -0.873667,0.235334 z m 2.049026,-1.016086 c -0.08715,-0.141007 0.104335,-0.35574 0.405999,-0.455298 0.503253,-0.166089 0.664977,0.108573 0.222706,0.378231 -0.266811,0.162679 -0.554035,0.197886 -0.628705,0.07707 z M 17.696396,29.169932 c -0.06407,-0.07346 -0.281523,-0.422216 -0.483241,-0.775006 l -0.36676,-0.641438 0.219038,-0.42711 c 0.120469,-0.234911 0.317081,-0.573082 0.436914,-0.751491 0.214201,-0.318906 0.225305,-0.324381 0.657808,-0.324381 0.502479,0 0.525163,0.0206 1.039636,0.944304 l 0.292141,0.524517 -0.2327,0.467706 c -0.127984,0.257239 -0.33958,0.613677 -0.470211,0.792086 -0.222742,0.304209 -0.260479,0.324382 -0.606829,0.324382 -0.256472,0 -0.404906,-0.04081 -0.485796,-0.133569 z m -2.063356,0.01309 c -0.03149,-0.03169 -0.0562,-0.386758 -0.05493,-0.789054 0.0017,-0.529219 0.02361,-0.694914 0.07931,-0.599308 0.08724,0.149716 0.06391,1.477232 -0.02439,1.388362 z m -0.13786,-2.716258 c -0.0046,-0.60156 -0.06553,-2.976171 -0.09814,-3.825839 -0.01312,-0.341731 0.01241,-0.545249 0.07492,-0.597121 0.150134,-0.1246 0.176155,0.226477 0.198149,2.673511 0.01566,1.742433 -0.0012,2.25208 -0.07523,2.277025 -0.07033,0.02369 -0.09653,-0.114973 -0.0997,-0.527576 z m 31.755438,-1.428107 c 0,-0.108598 0.16194,-0.202904 0.662692,-0.385917 0.259533,-0.09485 0.527771,-0.234222 0.596086,-0.309707 0.117924,-0.130305 0.100815,-0.13996 -0.338312,-0.190926 -0.384856,-0.04467 -0.462517,-0.07805 -0.462517,-0.198837 0,-0.134215 0.06594,-0.145155 0.874852,-0.145155 h 0.87485 l 0.479916,-0.427318 c 0.263953,-0.235024 0.510272,-0.484034 0.547375,-0.553355 0.03711,-0.06932 0.146786,-0.211904 0.24374,-0.31685 0.220434,-0.238605 0.5928,-1.040629 0.530185,-1.141944 -0.02637,-0.04267 -0.189364,-0.05586 -0.375319,-0.03037 -0.197963,0.02713 -0.39751,0.0082 -0.501695,-0.04753 -0.15666,-0.08384 -0.161761,-0.103814 -0.05403,-0.211541 0.0822,-0.0822 0.244958,-0.114839 0.526673,-0.105633 0.458793,0.01499 0.627915,-0.07926 0.700163,-0.390188 l 0.04877,-0.209893 -1.279895,-0.01398 c -0.703943,-0.0077 -1.365762,-0.0074 -1.470709,6.11e-4 -0.299932,0.02297 -0.534273,-0.0555 -0.534273,-0.178919 0,-0.06217 0.0086,-0.119892 0.01908,-0.128276 0.01049,-0.0084 0.757525,-0.03414 1.660066,-0.05724 l 1.640985,-0.042 v -0.3053 -0.305299 l -0.473609,-0.01457 c -0.567545,-0.01745 -0.840946,-0.132264 -0.705009,-0.296059 0.06132,-0.07388 0.248663,-0.109164 0.57976,-0.109164 0.356372,0 0.500663,-0.02997 0.53153,-0.11041 0.04299,-0.112029 -0.144404,-0.837227 -0.263464,-1.019582 -0.05119,-0.07841 -0.564627,-0.09929 -2.412895,-0.09813 -2.492208,0.0015 -2.702331,0.02943 -2.4365,0.323173 0.114901,0.126964 0.257048,0.141705 1.366427,0.141705 1.022618,0 1.255195,0.0205 1.335886,0.117723 0.211701,0.255083 -0.02182,0.302064 -1.50148,0.302064 H 46.24518 L 46.060977,18.365692 C 45.8067,18.070076 45.823416,17.781776 46.110797,17.50649 l 0.23402,-0.224172 1.998483,-0.01142 c 3.016413,-0.01723 2.74178,0.0035 2.628808,-0.198476 -0.151398,-0.270683 -0.200895,-0.283814 -1.074503,-0.28505 -0.812441,-0.0012 -0.825406,-0.004 -0.801411,-0.172899 0.02273,-0.160108 0.06701,-0.173232 0.65407,-0.193899 0.346324,-0.0122 0.628673,-0.04654 0.627443,-0.07633 -0.0038,-0.09162 -0.408503,-0.503855 -0.648323,-0.660359 -0.210139,-0.137136 -0.354597,-0.146844 -1.926217,-0.129443 -1.507292,0.01669 -1.704399,0.0049 -1.746525,-0.104932 -0.02612,-0.06806 -0.01409,-0.157142 0.02673,-0.197962 0.06336,-0.06336 1.127072,-0.128652 2.297545,-0.141021 0.180887,-0.0019 0.309734,-0.03446 0.286329,-0.07233 -0.06739,-0.109043 -1.092629,-0.402729 -1.743688,-0.499493 -1.040198,-0.154597 -2.656877,0.104309 -2.814737,0.450773 -0.11553,0.253563 -0.545081,0.500112 -0.956138,0.548796 -0.308496,0.03654 -0.450676,0.108288 -0.755182,0.381103 -0.448221,0.401572 -0.394633,0.482242 0.321525,0.484032 0.301199,7.64e-4 0.498518,0.03832 0.554297,0.10553 0.159448,0.192123 -0.0926,0.27378 -0.927762,0.300574 -0.47738,0.01532 -0.85428,0.06335 -0.919082,0.11713 -0.131659,0.109265 -0.358173,0.03894 -0.358173,-0.1112 0,-0.184715 1.317487,-1.439069 1.822178,-1.73486 0.540894,-0.317009 1.421524,-0.671687 2.108553,-0.849229 1.419817,-0.36691 3.129746,-0.122157 4.371143,0.625668 1.837194,1.106738 2.890689,3.007774 2.73438,4.9342 -0.0706,0.870116 -0.361449,1.867907 -0.708648,2.4311 -0.737943,1.197024 -2.34689,2.448321 -3.572855,2.778652 -0.448348,0.120805 -0.572437,0.128969 -0.572437,0.03766 z M 20.661381,24.514115 c -0.07304,-0.253613 -0.07946,-4.745346 -0.0069,-4.81792 0.105748,-0.105749 0.185669,0.228971 0.189051,0.791783 0.002,0.335829 0.01618,1.28035 0.03148,2.098934 0.0153,0.818584 0.0098,1.617133 -0.01226,1.774553 -0.04243,0.303132 -0.137333,0.375063 -0.201388,0.15265 z m -2.776757,-0.632059 c -0.215046,-0.08643 -0.217898,-0.252684 -0.0094,-0.545553 0.109729,-0.154099 0.208286,-0.216028 0.303975,-0.191005 0.123023,0.03217 0.130405,0.01548 0.05626,-0.12721 -0.04694,-0.09033 -0.09368,-0.174367 -0.103867,-0.186745 -0.01019,-0.01238 -0.123106,0.08207 -0.250927,0.209893 -0.179239,0.17924 -0.300241,0.2324 -0.528982,0.2324 -0.429246,0 -0.783707,-0.35166 -0.783707,-0.777513 0,-0.257041 0.776184,-1.714932 1.038769,-1.951101 0.236069,-0.21232 0.708776,-0.231804 0.925843,-0.03816 0.248492,0.221674 1.088383,1.752485 1.088383,1.983719 0,0.117342 -0.0871,0.341532 -0.193563,0.498202 -0.183845,0.270551 -0.214506,0.284854 -0.6106,0.284854 -0.420158,0 -0.525876,0.08961 -0.333128,0.282352 0.04615,0.04615 0.061,0.156056 0.03302,0.244239 -0.05513,0.173718 -0.318427,0.207719 -0.63212,0.08163 z m 30.778005,-0.714702 c -0.131826,-0.103277 -0.137032,-0.130043 -0.03816,-0.196198 0.191916,-0.128416 0.989435,-0.0987 1.04221,0.03883 0.06403,0.166873 0.01733,0.191872 -0.442656,0.236923 -0.302585,0.02964 -0.448386,0.009 -0.561391,-0.07956 z m -0.400706,-0.865761 c -0.328141,-0.0229 -0.400706,-0.0534 -0.400706,-0.168453 0,-0.194876 0.144676,-0.233152 0.881293,-0.233152 0.545894,0 0.651,-0.02086 0.715886,-0.142106 0.0543,-0.101452 0.04598,-0.183334 -0.02909,-0.286218 -0.08496,-0.116449 -0.234565,-0.151438 -0.779372,-0.182275 -0.610626,-0.03456 -0.674229,-0.05256 -0.674229,-0.190812 0,-0.140854 0.0582,-0.154346 0.75318,-0.174604 0.845263,-0.02464 1.027563,0.04209 1.190655,0.435829 0.123574,0.298335 0.0083,0.612699 -0.287004,0.78274 -0.236096,0.135943 -0.786453,0.199809 -1.370613,0.159051 z M 15.40152,21.572098 c -0.07167,-0.186762 -0.05947,-1.720921 0.01404,-1.766354 0.04035,-0.02493 0.09364,-0.01253 0.118425,0.02757 0.07269,0.11761 0.12754,1.239668 0.07584,1.551483 -0.04784,0.288572 -0.138253,0.369867 -0.20831,0.187303 z m 25.60754,-1.364706 c -0.06556,-0.06555 -0.06715,-0.117029 -0.0059,-0.190812 0.06328,-0.07626 0.388219,-0.101038 1.324527,-0.101038 1.323159,0 1.481326,-0.04299 1.37625,-0.374057 -0.06237,-0.196516 -0.233055,-0.246708 -0.862921,-0.253756 -0.721511,-0.0081 -1.100672,-0.177583 -0.723222,-0.32333 0.234616,-0.09059 1.190385,-0.116172 1.475199,-0.03947 0.599872,0.161529 0.76073,0.753268 0.313414,1.152943 l -0.245442,0.219303 H 42.37991 c -0.880212,0 -1.309144,-0.02809 -1.370827,-0.08978 z m 4.025889,-0.537447 c -0.181375,-0.06607 -0.184616,-0.09091 -0.0318,-0.24373 0.09572,-0.09572 0.312975,-0.117846 1.125792,-0.114668 1.156594,0.0045 1.274323,0.02554 1.274323,0.227514 0,0.166653 -0.03687,0.171417 -1.395177,0.180292 -0.452508,0.003 -0.890422,-0.01927 -0.973142,-0.04941 z M 15.339742,19.209536 c -0.03755,-0.101223 -0.06511,-2.629154 -0.02968,-2.721109 0.110376,-0.286374 0.20319,0.19506 0.231178,1.199135 0.02998,1.075797 -0.0082,1.541056 -0.126594,1.541056 -0.0373,0 -0.07102,-0.0086 -0.07491,-0.01908 z m 5.226175,-1.007648 c -0.05436,-0.14166 0.02495,-0.270792 0.166313,-0.270792 0.06643,0 0.109982,0.07556 0.109982,0.190811 0,0.209719 -0.203864,0.268732 -0.276295,0.07998 z m -2.948816,-0.17297 c -0.07368,-0.01807 -0.308902,-0.34799 -0.522728,-0.733174 -0.213827,-0.385183 -0.48762,-0.872065 -0.608431,-1.081958 -0.264589,-0.459689 -0.272467,-0.586167 -0.05887,-0.945052 0.22663,-0.380774 0.35328,-0.466959 0.686213,-0.466959 0.369979,0 0.634188,0.122856 0.756764,0.351894 0.124976,0.233518 0.154225,0.227617 0.340108,-0.06861 0.140715,-0.224247 0.191626,-0.247081 0.597958,-0.268198 0.250865,-0.01304 0.488995,0.01414 0.547201,0.06245 0.119529,0.0992 0.418344,0.651416 0.418344,0.773108 0,0.108441 -1.051033,2.014697 -1.211589,2.197456 -0.123337,0.140393 -0.675732,0.245061 -0.944975,0.179055 z m 24.767807,-0.07762 c -0.05248,-0.01811 -0.09541,-0.09574 -0.09541,-0.172506 0,-0.175182 0.310705,-0.229304 1.266908,-0.220685 0.780869,0.007 0.954789,0.06519 0.823711,0.275408 -0.07296,0.117002 -0.20994,0.136775 -0.992224,0.143225 -0.49917,0.0041 -0.950516,-0.0073 -1.002989,-0.02544 z M 20.577923,16.849813 c -0.01946,-0.05596 -0.05226,-0.548254 -0.07286,-1.093976 -0.02061,-0.545723 -0.07171,-1.106349 -0.11356,-1.245834 -0.07768,-0.258889 -0.561348,-1.038152 -0.696012,-1.12138 -0.08821,-0.05451 -0.100933,-0.34232 -0.01514,-0.34232 0.295122,0 0.839735,0.779789 1.007795,1.442983 0.158063,0.623741 0.172895,2.379275 0.02054,2.430326 -0.05245,0.01758 -0.111294,-0.01384 -0.130761,-0.0698 z m 24.093024,-0.04401 c -0.416435,-0.01975 -0.568569,-0.0564 -0.60264,-0.145187 -0.07449,-0.194121 0.127955,-0.253611 0.867242,-0.254847 0.765657,-0.0013 0.941221,0.03597 0.941221,0.199699 0,0.118701 -0.31656,0.265927 -0.520162,0.241916 -0.07073,-0.0084 -0.379277,-0.02705 -0.685661,-0.04158 z m 2.827023,-0.02772 c -0.345808,-0.127924 -0.124994,-0.373486 0.335845,-0.373486 0.326734,0 0.485984,0.106222 0.35525,0.236957 -0.124904,0.124903 -0.514475,0.201864 -0.691095,0.136529 z M 34.179984,16.5894 c -0.173043,-0.174101 -0.03306,-0.44813 0.496709,-0.972343 0.332571,-0.329084 0.5935,-0.661652 0.652909,-0.83217 0.38801,-1.113674 0.951585,-1.442738 1.999541,-1.167507 0.137158,0.03602 0.364784,-0.03094 0.801411,-0.235741 1.181527,-0.554211 1.608881,-0.327507 0.868533,0.460741 -0.219608,0.233817 -0.42776,0.425122 -0.462559,0.425122 -0.136076,0 -0.393908,0.340728 -0.409695,0.541418 -0.02952,0.375246 -0.342645,0.908008 -0.655266,1.114891 -0.379271,0.250991 -0.802256,0.326771 -1.287927,0.230741 -0.355748,-0.07034 -0.425951,-0.05748 -0.913839,0.167403 -0.556556,0.256533 -0.993971,0.363877 -1.089817,0.267445 z m 1.364731,-0.811526 c 0.02544,-0.04116 -0.01344,-0.131658 -0.08641,-0.201093 -0.09991,-0.09507 -0.141516,-0.102352 -0.168496,-0.02948 -0.01971,0.05322 -0.08428,0.145221 -0.143499,0.204441 -0.05922,0.05922 -0.107673,0.12135 -0.107673,0.138068 0,0.06218 0.461567,-0.03993 0.506077,-0.111941 z m 1.721191,-0.310653 c -0.06467,-0.07792 -0.06385,-0.126957 0.0032,-0.194046 0.166942,-0.166943 -0.05357,-0.09039 -0.284218,0.09867 -0.213525,0.175024 -0.217692,0.187874 -0.06175,0.190433 0.09197,0.0015 0.190303,0.04008 0.218507,0.08572 0.03565,0.05768 0.07559,0.05867 0.131023,0.0032 0.05544,-0.05544 0.05337,-0.111521 -0.0068,-0.184014 z m -1.049594,0.03015 c 0.023,-0.0372 -0.02664,-0.08555 -0.110298,-0.107424 -0.0986,-0.02578 -0.136287,-0.08101 -0.107131,-0.156982 0.06227,-0.162264 0.274038,-0.196405 0.425826,-0.06865 0.110528,0.09303 0.16657,0.08027 0.438867,-0.09993 0.302552,-0.200218 0.397231,-0.338941 0.23133,-0.338941 -0.04445,0 -0.05746,-0.03781 -0.0289,-0.08402 0.02941,-0.04758 0.146557,-0.06509 0.270139,-0.04037 0.167946,0.03359 0.237077,0.0084 0.300096,-0.109356 0.07098,-0.132635 0.05189,-0.163455 -0.143499,-0.231567 -0.123961,-0.04322 -0.242188,-0.142829 -0.262727,-0.221371 -0.02386,-0.09124 -0.135065,-0.161135 -0.307992,-0.193576 -0.318019,-0.05966 -0.433205,-0.0066 -0.433205,0.199725 0,0.189556 -0.375547,0.355911 -0.46752,0.207095 -0.0738,-0.119418 -0.179132,-0.02262 -0.257796,0.236925 -0.04368,0.144107 -0.03128,0.173966 0.05799,0.139709 0.06245,-0.02396 0.272486,-0.0674 0.466757,-0.09654 0.292316,-0.04384 0.35322,-0.03234 0.35322,0.06661 0,0.11611 -0.593121,0.432024 -0.811114,0.432024 -0.138749,0 -0.132784,0.155035 0.01403,0.364642 0.121873,0.173997 0.297641,0.222193 0.371934,0.101985 z m 1.493697,-0.466627 c 0,-0.04198 -0.03232,-0.07633 -0.07182,-0.07633 -0.0395,0 -0.09305,0.03435 -0.118992,0.07633 -0.02594,0.04198 0.0064,0.07633 0.07182,0.07633 0.06545,0 0.118992,-0.03435 0.118992,-0.07633 z m 0.601839,-1.110428 c 0.238332,-0.251216 0.152216,-0.323704 -0.19044,-0.160302 -0.227294,0.108388 -0.257849,0.149463 -0.180508,0.242653 0.124193,0.149643 0.157964,0.142145 0.370948,-0.08235 z m -23.063066,1.591492 c -0.136228,-0.233785 0.121007,-1.322505 0.394673,-1.670413 0.08872,-0.112795 0.161316,-0.245648 0.161316,-0.295231 0,-0.110934 0.486578,-0.550366 0.814247,-0.73535 0.646562,-0.365015 1.52072,-0.466784 2.221617,-0.258642 0.41966,0.124628 0.540765,0.23 0.412154,0.358611 -0.05599,0.05599 -0.232952,0.04177 -0.586989,-0.04716 -0.503998,-0.126601 -0.650375,-0.121771 -1.472193,0.04857 -0.88962,0.184394 -1.581532,1.161036 -1.712969,2.417874 -0.01928,0.184373 -0.164153,0.297929 -0.231856,0.181739 z"
       id="path76" />
    <text
       xml:space="preserve"
       id="text142"
       style="font-style:normal;font-variant:normal;font-weight:normal;font-stretch:normal;font-size:4.23333px;line-height:0;font-family:Ani;-inkscape-font-specification:Ani;white-space:pre;shape-inside:url(#rect144);fill:#000000;fill-opacity:1;stroke:none;"
       x="5.0672956"
       y="0"
       transform="translate(1.1050973,0.54157206)"><tspan
         x="4.2011076"
         y="5.9854227"><tspan
           style="font-style:normal;font-variant:normal;font-weight:normal;font-stretch:normal;font-size:4.23333px;line-height:1.15;font-family:Manjari;-inkscape-font-specification:Manjari;text-align:center;text-anchor:middle">J
</tspan></tspan><tspan
         x="3.5923597"
         y="10.853752"><tspan
           style="font-style:normal;font-variant:normal;font-weight:normal;font-stretch:normal;font-size:4.23333px;line-height:1.15;font-family:Manjari;-inkscape-font-specification:Manjari;text-align:center;text-anchor:middle">O
</tspan></tspan><tspan
         x="3.8693452"
         y="15.722081"><tspan
           style="font-style:normal;font-variant:normal;font-weight:normal;font-stretch:normal;font-size:4.23333px;line-height:1.15;font-family:Manjari;-inkscape-font-specification:Manjari;text-align:center;text-anchor:middle">K
</tspan></tspan><tspan
         x="3.8249035"
         y="20.590411"><tspan
           style="font-style:normal;font-variant:normal;font-weight:normal;font-stretch:normal;font-size:4.23333px;line-height:1.15;font-family:Manjari;-inkscape-font-specification:Manjari;text-align:center;text-anchor:middle">E
</tspan></tspan><tspan
         x="3.9117198"
         y="25.458739"><tspan
           style="font-style:normal;font-variant:normal;font-weight:normal;font-stretch:normal;font-size:4.23333px;line-height:1.15;font-family:Manjari;-inkscape-font-specification:Manjari;text-align:center;text-anchor:middle">R</tspan></tspan></text>
    <use
       x="0"
       y="0"
       xlink:href="#path76"
       id="use298"
       transform="rotate(180,32.310026,44.549391)"
       width="100%"
       height="100%" />
    <use
       x="0"
       y="0"
       xlink:href="#text142"
       id="use300"
       transform="rotate(180,32.310026,44.549391)"
       width="100%"
       height="100%" />
    <path
       id="path326"
       style="fill:none;stroke:#000000;stroke-width:0.264583px;stroke-linecap:butt;stroke-linejoin:miter;stroke-opacity:1"
       d="M 3.002467,39.946894 4.685221,38.975355 M 3.078512,38.138827 6.55191,36.133457 m -3.551909,0.176012 4.984254,-2.857251 m -4.984254,0.893075 6.192177,-3.549676 m 1.446196,14.011549 -3.20511,0.04664 L 3.020088,42 2.979908,32 9.999996,27.63487 v -1.26974 c 0,0 0.07208,-13.398449 0,-18.62513 0,-5.0583223 4.383533,-4.74 4.383533,-4.74 h 42.616472 l 4,3 0.03759,8 -1.03759,1 0.962409,1 L 61,42 l -3.773621,2.12926 -3.20511,0.04664"
       sodipodi:nodetypes="cccccccccccccccccccccccc" />
    <use
       x="0"
       y="0"
       xlink:href="#path326"
       id="use328"
       transform="rotate(180,32.329822,44.491533)"
       width="100%"
       height="100%"
       style="stroke-width:1;stroke-miterlimit:4;stroke-dasharray:none;opacity:1" />
  </g>
</svg>
